<?xml version="1.0" encoding="utf-8"?>
<!-- Generator: Adobe Illustrator 27.8.1, SVG Export Plug-In . SVG Version: 6.00 Build 0)  -->
<svg version="1.1" id="Layer_1" xmlns="http://www.w3.org/2000/svg" xmlns:xlink="http://www.w3.org/1999/xlink" x="0px" y="0px"
	 viewBox="0 0 4000 4000" style="enable-background:new 0 0 4000 4000;" xml:space="preserve">
<style type="text/css">
	.st0{opacity:0.2;fill:#010270;enable-background:new    ;}
	.st1{fill:#9B9FBA;}
	.st2{fill:#010270;}
	.st3{fill:#3FB1EA;}
	.st4{fill:#299ADF;}
	.st5{opacity:0.6;}
	.st6{fill:#FFFFFF;}
	.st7{fill:#28328E;}
	.st8{opacity:0.2;}
	.st9{opacity:0.3;}
	.st10{opacity:0.48;}
	.st11{fill:#B5B8C9;}
	.st12{opacity:0.4;fill:url(#SVGID_1_);enable-background:new    ;}
	.st13{opacity:0.5;}
	.st14{fill:#000072;}
	.st15{display:none;}
	
		.st16{display:inline;opacity:0.68;fill:url(#SVGID_00000018201052639031494760000015621710225697772732_);enable-background:new    ;}
	.st17{opacity:0.68;fill:url(#SVGID_00000182527772050217285690000001283814911990997676_);enable-background:new    ;}
</style>
<ellipse class="st0" cx="2010" cy="3677.5" rx="587.5" ry="77.5"/>
<g>
	<path class="st1" d="M1830.9,1113.3l-286.1,619.2c-16.4,35.6-59.3,50-93.9,31.6l-75.1-39.9l-174.2-92.6
		c-32.5-17.2-45.4-57.2-29.2-90.2l22.4-45.8c147.6,65.2,158.4-132.4,83.8-171.3l69.1-141.3h0.1l117.2-239.5
		c16.3-33.2,56-47.4,89.6-32l242.7,111.1C1831.7,1038.4,1846.7,1079,1830.9,1113.3L1830.9,1113.3z"/>
	<path class="st2" d="M1482.8,1791.5c-14.1,0-28.1-3.5-41-10.3l-249.2-132.4c-41.9-22.3-58.4-73.1-37.5-115.7l22.4-45.7
		c4.6-9.3,15.7-13.3,25.1-9.2c31.7,14,73.7,22.2,93.3-18.6c19.1-39.8,5.4-101.5-26.1-117.9c-9.3-4.8-13-16.2-8.4-25.6l69.1-141.3
		c0.2-0.4,0.4-0.8,0.6-1.2l116.6-238.3c21-42.9,71.5-61,115-41.1l242.7,111.1c21.2,9.7,37.5,27.1,45.6,49c8.2,22,7.2,45.8-2.6,67.1
		l0,0l-286.1,619.2c-10.2,22.1-28.5,38.5-51.5,46.2C1501.6,1789.9,1492.2,1791.5,1482.8,1791.5L1482.8,1791.5z M1204.4,1520.2
		l-14.6,29.8c-11.7,23.8-2.5,52.2,20.9,64.7l249.3,132.5c12,6.4,25.7,7.5,38.5,3.2c12.9-4.3,23.1-13.5,28.8-25.8l286.1-619.2
		c5.5-11.9,6-25.2,1.4-37.5c-4.5-12.2-13.6-22-25.4-27.4l-242.7-111.1c-24.3-11.1-52.5-1-64.3,23l-117.2,239.5
		c-0.2,0.4-0.4,0.8-0.6,1.2l-61.2,125.1c41.7,35.6,50.2,110.6,27.4,158.2C1321.9,1494.5,1287.9,1548.6,1204.4,1520.2L1204.4,1520.2z
		 M1830.9,1113.3L1830.9,1113.3L1830.9,1113.3z"/>
	<path class="st1" d="M1047.9,1882.2c0,0-1.8,117,57.9,179.4c59.7,62.5,170.4-81.8,170.4-81.8l-42.7-115.8"/>
	<path class="st3" d="M1655.3,1037.3l-70.8-29.7c-17-7.1-36.6,0.3-44.7,16.9l-256.9,529.9c-8.2,17-2.1,37.4,14.2,47l170,100.5
		c13.5,8,30.7,6.2,42.2-4.5l5.3-4.9"/>
	<path class="st2" d="M1141.7,2096.6c-19.1,0-36.2-7.4-49.8-21.6c-64.4-67.4-63.3-188-63.2-193.1c0.2-10.6,8.8-19,19.3-19
		c0.1,0,0.2,0,0.3,0c10.7,0.2,19.2,8.9,19,19.6c0,1.6-0.8,110,52.5,165.8c6.8,7.1,14.4,10.2,23.9,9.7c37.2-2,87.5-53.7,110.7-81.7
		l-38.9-105.5c-3.7-10,1.4-21.1,11.4-24.8c10-3.7,21.1,1.4,24.8,11.4l42.7,115.8c2.3,6.2,1.2,13.2-2.8,18.4
		c-7.9,10.4-79.6,101.3-145.8,104.9C1144.4,2096.5,1143,2096.6,1141.7,2096.6L1141.7,2096.6z"/>
	<path class="st4" d="M1384.1,1829.2l-18.4,34.9l-380.3,42.7c0,0-36.8-68.5,0-208.3c36.8-139.8,123.1-279.1,209.4-403.8
		c84.8-122.5,150.6-111.9,153-111.5l-69.1,141.3c74.6,38.8,63.7,236.5-83.8,171.3l-22.4,45.8c-16.2,33-3.2,72.9,29.2,90.2
		l174.2,92.6L1384.1,1829.2L1384.1,1829.2z"/>
	<g class="st5">
		<path class="st6" d="M1347.8,1183.2l-15.2,31c-27.7,9.3-70.8,35.5-120.3,107c-86.3,124.7-172.6,264-209.4,403.8
			c-23.4,88.8-17,148.9-9.3,180.8l-8.2,0.9c0,0-36.8-68.5,0-208.3c36.8-139.8,123.1-279.1,209.4-403.8
			C1279.6,1172.2,1345.5,1182.8,1347.8,1183.2L1347.8,1183.2z"/>
	</g>
	<path class="st2" d="M985.4,1926.1c-7,0-13.6-3.9-17-10.2c-1.7-3.1-39.9-76.8-1.7-222.3c38.6-146.7,128.9-289.5,212.2-409.9
		c90.3-130.4,164.2-121,172.3-119.5c5.9,1.1,11,4.9,13.7,10.3s2.8,11.7,0.1,17.2l-61.8,126.3c41.7,35.6,50.2,110.6,27.4,158.2
		c-8.8,18.3-42.8,72.3-126.3,44l-14.6,29.8c-11.7,23.8-2.5,52.2,20.9,64.7l174.2,92.6c5.8,3.1,9.7,8.9,10.2,15.5l8.3,105
		c0.3,3.6-0.5,7.3-2.2,10.5l-18.3,34.9c-3,5.7-8.6,9.5-14.9,10.2L987.6,1926C986.9,1926.1,986.2,1926.1,985.4,1926.1L985.4,1926.1z
		 M1313.7,1209c-24.1,10.2-60.6,35.4-103,96.7c-81.4,117.6-169.6,256.8-206.6,397.7c-25.7,97.8-13.6,158.5-6.1,182.6l355.4-39.9
		l11-20.9l-7-88.9l-164.8-87.6c-41.9-22.3-58.4-73.1-37.5-115.7l22.4-45.7c4.6-9.3,15.7-13.3,25.1-9.2c31.7,14,73.7,22.2,93.3-18.6
		c19.1-39.8,5.4-101.5-26.1-117.9c-9.3-4.8-13-16.2-8.4-25.6L1313.7,1209z"/>
	<path class="st1" d="M2429.6,3108c0,0-1.6,5.8-4.5,15.7c-11.9,40.9-46,150.8-80,193.8c-33.2,41.8-327.9,85.9-569.6,38h-0.1
		c-51.9-10.3-101.4-24.9-145.3-44.6c-23.6-10.6-42.1-30-52.1-53.9c-17.6-42.2-42.7-118.5-45.1-215.2
		C1529.3,2891.1,2429.6,3108,2429.6,3108L2429.6,3108z"/>
	<path class="st6" d="M1600,2055.6c0,0-147.4,177.8-159.8,177.1c-12.4-0.7-454.7,44.8-334.8-163.3c53.6-93,113.3-153.2,163-191.4
		c61.5-47.3,107.5-60.8,107.5-60.8l189.2,70.7l3.3,16L1600,2055.6L1600,2055.6z"/>
	<path class="st7" d="M1568.4,1903.9l-53.8,43.2l-238.3-62.8c0,0-3.1-2.3-7.9-6.2c61.5-47.3,107.5-60.8,107.5-60.8l189.2,70.7
		L1568.4,1903.9L1568.4,1903.9z"/>
	<path class="st2" d="M1338.2,2255.6c-141.2,0-228.4-25.5-259.8-76.2c-20.2-32.5-16.7-72.8,10.3-119.7
		c122.3-212.3,275.4-259.2,281.8-261.1c4-1.2,8.3-1,12.2,0.4l189.2,70.7c10,3.7,15.1,14.8,11.3,24.8s-14.8,15.1-24.8,11.3
		l-182.7-68.3c-27.8,10.5-152.4,65.6-253.6,241.3c-19.4,33.6-23.1,60.6-10.9,80.1c13.5,21.7,71.4,70.5,317.2,54.9
		c2.8-0.2,4.9-0.3,6.6-0.4c18.1-14.9,88.9-96.1,150.3-170.2c6.8-8.2,19-9.3,27.2-2.5c8.2,6.8,9.3,19,2.5,27.2
		c-0.4,0.4-37.4,45.1-75.5,89.1c-81.8,94.4-89,95.5-99.8,94.9c-1.5,0-4.5,0.2-8.8,0.5C1397.7,2254.6,1366.8,2255.6,1338.2,2255.6
		L1338.2,2255.6z M1439.1,2251.9L1439.1,2251.9L1439.1,2251.9z M1432.6,2215.3L1432.6,2215.3z M1441.3,2213.4L1441.3,2213.4
		L1441.3,2213.4z"/>
	<g class="st8">
		<path class="st6" d="M1670.3,3123.7c0,0-24.3,109.2,50.1,160.7c74.4,51.4,115.8-10.1,104.7-63.4c-11-53.3-19.3-81.8-19.3-81.8"/>
	</g>
	<path class="st2" d="M2005.3,3395.6c-106.9,0-259.8-11.7-383.2-67.1c-27.9-12.6-49.9-35.3-61.9-64
		c-19.9-47.7-44.2-124.9-46.6-222.2c-0.4-17.1,6.8-32.1,20.9-43.5c19.1-15.5,77.4-62.5,499.1,8.9c204.9,34.6,398.4,81.1,400.4,81.6
		c5.1,1.2,9.4,4.4,12.1,8.9c2.7,4.5,3.4,9.9,2,14.9c-1.8,6.5-43.8,160.6-88,216.4c-29.7,37.4-173.1,59.9-293.9,64.9
		C2048.6,3395.1,2028,3395.6,2005.3,3395.6L2005.3,3395.6z M1678.7,3007.7c-76.5,0-107.5,11.1-119.9,21.2c-5.9,4.8-6.7,8.9-6.6,12.5
		c2.2,91.2,24.9,163.6,43.6,208.2c8.2,19.7,23.2,35.2,42.2,43.7c252.1,113.3,662.4,49.4,691.9,12.1c28.6-36,60.4-131.6,75.6-183.3
		c-54.1-12.6-212.5-48.4-378.4-76.5C1858.3,3017.1,1749.2,3007.6,1678.7,3007.7L1678.7,3007.7z"/>
	<path class="st6" d="M2669.4,2574.4c-44.4,180.5-135.6,399.9-178.1,497.8c-14.1,32.4-44.2,54.9-79.2,59.5
		c-385.2,51-706.5-1.2-866.6-55.5c-55.4-18.7-91.5-37.8-104.3-52.8c-51.5-60.6-33.9-249.9-33.9-249.9s50.4-192.9,53.1-436.9
		c2.8-244,80.9-486.3,80.9-486.3l0.1-0.1l144.2-52.4c0,0,383.8,60.5,682.9,137.6c161.4,41.6,298.2,88.1,336.8,132.5
		c31.4,36.1,46.8,73.2,51.4,113.4C2768.1,2282.4,2711.6,2402.7,2669.4,2574.4L2669.4,2574.4z"/>
	<path class="st7" d="M2756.6,2181.4l-6.9,3.1c-208.1,48.1-994.4-116.5-1208.4-334.2l0.1-0.1l144.2-52.4
		c0,0,909.5,143.3,1019.7,270.1C2736.6,2104.1,2752,2141.2,2756.6,2181.4L2756.6,2181.4z"/>
	<g class="st9">
		<path class="st2" d="M2669.4,2574.4c-44.4,180.5-135.6,399.9-178.1,497.8c-14.1,32.4-44.2,54.9-79.2,59.5
			c-385.2,51-706.5-1.2-866.6-55.5c678.4-168.7,758.3-924.3,758.3-924.3c100.1-92.5-120.5-161.1-120.5-161.1l185.1-55.3
			c161.4,41.6,298.2,88.1,336.8,132.5c31.4,36.1,46.8,73.2,51.4,113.4C2768.1,2282.4,2711.6,2402.7,2669.4,2574.4L2669.4,2574.4z"/>
	</g>
	<g class="st8">
		<path class="st6" d="M1863.9,1899.3l-67.2,96.2c0,0,238.8,94.6,238.8,89.1v-133.2"/>
	</g>
	<g class="st5">
		<path class="st6" d="M2737.4,2115.8c-2.6-3.4-5.4-6.8-8.3-10.2c-110.2-126.8-1019.7-270.1-1019.7-270.1l-144.2,52.4l-0.1,0.1
			c0,0-78.1,242.2-80.9,486.3c-2.7,244-53.1,436.9-53.1,436.9s-13.1,140.9,16.4,218.5c-2.5-2.1-4.7-4.2-6.4-6.2
			c-51.5-60.6-33.9-249.9-33.9-249.9s50.4-192.9,53.1-436.9c2.8-244,80.9-486.3,80.9-486.3l0.1-0.1l144.2-52.4
			c0,0,909.5,143.3,1019.7,270.1C2718.8,2083.7,2729.5,2099.6,2737.4,2115.8L2737.4,2115.8z"/>
	</g>
	<path class="st2" d="M2097.6,3171.9c-143.5,0-262.7-13.2-350-27.6c-159.4-26.3-288.5-69.9-321.2-108.4
		c-55.1-64.9-40.2-243.9-38.4-264.1c0.1-1,0.3-2.1,0.5-3.1c0.5-1.9,49.8-193.7,52.5-432.3c2.7-244.1,81-489.5,81.8-492
		c1.8-5.7,6.2-10.2,11.8-12.2l144.3-52.4c3.1-1.1,6.4-1.4,9.6-0.9c2.3,0.4,230.7,36.5,469.6,87.7
		c328.8,70.4,512.5,132.2,561.7,188.8c91.7,105.5,57.8,217.6,10.8,372.9c-13.6,44.8-28.9,95.6-42.5,150.8
		c-45.4,184.6-140.5,411.8-179.2,500.9c-16.6,38.3-52.8,65.4-94.4,70.9C2299.6,3166.1,2193.2,3171.9,2097.6,3171.9L2097.6,3171.9z
		 M1426.3,2776.8c-4.6,51.6-8,190,29.5,234.1c18.9,22.3,123.8,66.5,298.1,95.3c142.9,23.6,372.6,43.8,655.6,6.4
		c28.2-3.7,52.8-22.2,64.1-48.1c38.4-88.2,132.4-312.9,177.1-494.7c13.8-56.1,29.3-107.4,43-152.7c45-148.8,74.7-247-3-336.4
		c-86.1-99-748.5-222.5-1003.3-262.9l-130.6,47.5c-13.8,45.7-74.8,259.4-77.2,471.6C1477.1,2568.7,1431.1,2757.5,1426.3,2776.8
		L1426.3,2776.8z"/>
	<path class="st1" d="M2517.8,2819.1c0,0-82.7,129.5-237,150.2s-96.5-180.5-96.5-180.5s48.2-59.2,82.7-107.5s5.5-83.5,96.5-54.2
		S2550.9,2744.6,2517.8,2819.1z"/>
	<path class="st2" d="M2259.5,2990c-33.2,0-59.2-10.7-77.4-31.9c-49.4-57.2-17.7-170-16.3-174.8c0.7-2.5,1.9-4.8,3.6-6.9
		c0.5-0.6,48.2-59.4,81.9-106.5c8.5-11.9,12.5-23,16-32.9c5.2-14.5,11.1-30.9,30.1-37.5c15.3-5.3,35.4-2.7,71.9,9
		c72.1,23.3,139.4,77.5,163.6,131.9c13.4,29.9,14.2,59.8,2.4,86.3c-0.4,0.9-0.9,1.7-1.4,2.5c-3.6,5.6-89.4,137.3-250.7,158.9
		C2275,2989.5,2267.1,2990,2259.5,2990L2259.5,2990z M2201.9,2797.7c-7.8,29.8-19,102.4,9.4,135.3c13.6,15.7,35.5,21.3,66.9,17.1
		c135.6-18.2,214-127.7,222.6-140.3c6.7-16.1,5.7-34.1-3-53.5c-19.8-44.4-78.8-91-140.3-110.9c-39.7-12.8-47-9.6-47.7-9.2
		c-1.6,1.3-4.3,8.9-6.2,14c-3.9,11-9.4,26-20.9,42.2C2252.9,2734.2,2212.4,2784.7,2201.9,2797.7L2201.9,2797.7z M2517.8,2819.1
		L2517.8,2819.1L2517.8,2819.1z"/>
	<g>
		<path class="st6" d="M3063.5,1252.3l-108.8,666.9c0,0-40.1,195.7-370.8,157.1c-288.8-33.7-638.5-134.7-823.5-214.8
			c-0.7-0.3-1.1-0.4-1.4-0.6c-0.1,0-0.2-0.1-0.3-0.1c-26.2-11.3-49-22.3-67.8-32.6c-151.6-82.7-305.9-198.5-190.2-465.8
			c115.8-267.3,259.1-545.6,372.1-642.1s322.4-99.2,322.4-99.2s63.4-79.9,208.5-61.6c123.7,15.7,368.9,124.7,473.9,191.9
			c0,0,0.1,0,0.1,0.1c18.1,11.6,32.1,22,40.5,30.4c38.1,38.1,46.7,82.1,48.2,107c0.8,12.2-0.2,19.8-0.2,19.8s18.5,23.8,39.4,66.8
			C3034.4,1034.9,3067.7,1130.9,3063.5,1252.3L3063.5,1252.3z"/>
		<g class="st5">
			<path class="st6" d="M2954.3,835.8c-5.1-7.2-11.1-14.4-18.1-21.4c-57-56.9-369.3-203.9-514.5-222.3
				c-145.1-18.4-208.5,61.6-208.5,61.6l-93.7,110.8c0,0-71.3,95,53.8,181.8c-4.4-1.7-133.2-54.4-102-146.3
				c17.8-52.4,60.2-106.1,94-143.2c-68.6,6.9-195.3,28.4-274.6,96.1c-113,96.5-256.3,374.8-372.1,642.1
				c-51.9,119.7-49.5,209.1-17.5,278.6c-47.7-73.8-60.7-171.9-0.4-311.2c115.8-267.3,259.1-545.6,372.1-642.1s322.4-99.2,322.4-99.2
				s63.4-79.9,208.5-61.6c145.2,18.4,457.5,165.4,514.5,222.4C2935.9,799.4,2947.2,818.2,2954.3,835.8L2954.3,835.8z"/>
		</g>
		<path class="st7" d="M1573.4,1201.7c-107.8,212.3,18.3,334.5,18.3,334.5c170.9,212.2,766.2,374.8,953.6,344.5
			s170.9-71.7,268.4-443.6c97.5-372-147.9-442.2-147.9-442.2c-227.7,85.3-633.1-18.2-603.8-185.4c-211.9-73.5-281.2,18-281.2,18
			L1573.4,1201.7L1573.4,1201.7z"/>
		<g class="st9">
			<path class="st2" d="M2813.7,1437c-97.5,371.9-81,413.3-268.4,443.6s-782.7-132.3-953.6-344.5c0,0-8-7.7-18.2-22.7
				c186.1,204.8,757.6,358.9,940.5,329.3c187.4-30.3,170.9-71.7,268.4-443.6c45.7-174.3,16.1-282.4-28.3-348
				C2812.8,1109.7,2869.6,1223.8,2813.7,1437L2813.7,1437z"/>
		</g>
		<path class="st2" d="M2667.1,2100.7c-27,0-55.4-1.7-85.4-5.2c-321.2-37.5-740-163-899.9-250.3c-74.2-40.5-156.3-92.4-202.7-170.8
			c-52.2-88.2-50.9-192.7,4.1-319.6C1567,1161,1727.6,819,1860.4,705.7c105.2-89.8,284.7-102,326.3-103.6
			c20.4-20.7,89.9-78.1,219.7-61.7c150,19,466.2,168.3,525.7,227.8c51.8,51.8,54.9,112.8,54.1,134.7c20.7,29.3,103.4,158.6,96.7,350
			c0,0.8-0.1,1.6-0.2,2.4l-108.8,667c0,0.3-0.1,0.5-0.1,0.8c-0.5,2.3-12,55.9-67.7,103.8C2848.7,2076,2768.6,2100.7,2667.1,2100.7
			L2667.1,2100.7z M2361.2,576.1c-103.1,0-148.8,54.5-150.9,57.1c-3.6,4.4-9.1,7.1-14.8,7.2c-2,0-203.9,3.9-310.2,94.6
			c-126.8,108.2-284.3,444.4-366.9,635.1c-110.6,255.3,35.8,361.6,181.7,441.2c156.8,85.5,569,208.8,885.9,245.8
			c303.7,35.4,347.1-130.4,349.6-141.6l108.5-665.2c6.6-199.4-92.1-328.5-93.1-329.8c-3.1-4-4.6-9.2-3.9-14.3
			c0.3-2.4,6.6-61.5-42.6-110.7c-55-55-362.4-199-503.2-216.8C2387.2,577,2373.8,576.1,2361.2,576.1L2361.2,576.1z M3063.5,1252.3
			L3063.5,1252.3L3063.5,1252.3z"/>
		<path class="st2" d="M2473.7,1045.5c-74.8,0-145.9-8.1-207.3-23.9c-109-28.1-183-79.7-214.1-149c-19.2-42.9-11.6-94.8,19.3-132.1
			l108.8-131.6c6.8-8.2,18.9-9.4,27.2-2.6s9.4,19,2.6,27.2L2101.4,765c-21.6,26.2-27.1,62.2-13.8,91.8
			c58.3,130.2,292,166.2,497.7,144c40.3-4.3,78.4-22,107.3-49.8l111.4-106.8c0.4-0.4,0.9-0.8,1.4-1.2c0.8-0.6,80.8-61.9,176,53.4
			c6.8,8.2,5.6,20.4-2.6,27.2c-8.2,6.8-20.4,5.6-27.2-2.6c-66.9-81-115.6-52.2-121.8-48l-110.4,105.9c-35.1,33.6-81.2,55-129.9,60.3
			C2550.4,1043.4,2511.6,1045.4,2473.7,1045.5L2473.7,1045.5z"/>
		<path class="st2" d="M1780.8,843.9c-3.5,0-7.1-1.1-10.1-3.4c-7.2-5.5-8.6-15.8-3.1-23c3.1-4.1,79-100.2,299.8-23.6
			c8.6,3,13.2,12.4,10.2,21s-12.4,13.2-21,10.2c-196-68-262,11.7-262.7,12.5C1790.6,841.7,1785.7,843.9,1780.8,843.9L1780.8,843.9z"
			/>
		<g class="st8">
			<path class="st6" d="M1682.2,1694.2c-29.1-11.6-47.3-40.8-46.9-72.2c0.4-35.3,10.1-84.7,57.1-107
				c77.2-36.8,117.1,16.5,100.6,73.3C1779.4,1634.9,1743.5,1718.5,1682.2,1694.2L1682.2,1694.2z"/>
		</g>
		<path class="st2" d="M2492.4,1900.8c-105.9,0-270.5-31.8-435.2-85.7c-225.7-73.9-399.7-171.5-477.8-267.8
			c-5.4-5.5-35.3-37.8-53-93.7c-17.4-55-25.9-144.7,32.3-259.3c4.1-8.1,14.1-11.4,22.2-7.3c8.1,4.1,11.4,14.1,7.3,22.2
			c-100.6,198.1,10.4,310.5,15.1,315.2c0.5,0.4,0.9,1,1.3,1.5c73.9,91.8,242.6,185.7,462.9,257.8c189.6,62.1,385.1,95.3,475.2,80.7
			c152.2-24.6,158.9-50.9,222-302.1c9.5-37.9,20.3-80.9,33-129.4c38.3-146,26.7-265.2-33.4-344.8c-45.1-59.8-102.6-77.1-103.2-77.3
			c-8.8-2.6-13.8-11.7-11.3-20.5s11.6-13.8,20.4-11.3c2.7,0.8,67.2,19.8,119.1,87.4c47.1,61.4,92.4,176.2,40.3,374.8
			c-12.7,48.4-23.4,91.2-33,129.1c-63.6,253-75,298.6-248.8,326.7C2532.1,1899.5,2513.4,1900.8,2492.4,1900.8L2492.4,1900.8z"/>
		<path class="st2" d="M1802.6,948.4c0,0,59.8-106.8,118.8-45.2c59,61.5,137.1,207.6,381.5,240.7c244.4,33.1,297.6-34.9,371.1,33.1
			c73.5,68,44.1,209.5,12.9,325.2c-31.2,115.8-49.6,260.9-198.4,262.7c-148.8,1.8-698.2-116.2-843.3-342c0,0-56.4-57.8,30.4-245.2
			C1675.4,1177.7,1742,1039.4,1802.6,948.4L1802.6,948.4z"/>
		<g class="st9">
			<path class="st2" d="M2686.8,1502.1c-31.2,115.8-49.6,260.9-198.4,262.8c-146.7,1.8-683-112.9-837-332.6
				c189.2,190.9,663.2,290.2,799.8,288.5c148.8-1.8,167.2-147,198.4-262.8c26.6-98.6,51.8-215.7,13.4-290.3
				c3.6,2.8,7.2,5.8,10.9,9.2C2747.5,1244.9,2718,1386.4,2686.8,1502.1L2686.8,1502.1z"/>
		</g>
		<g class="st9">
			<path class="st2" d="M3063.5,1252.3l-108.8,666.9c0,0-40.1,195.7-370.8,157.1c-288.8-33.7-638.5-134.7-823.5-214.8
				c38.4,15.4,725.5,286.4,959.5,61.4c240.7-231.5,229.6-613.7,207.6-742.3c-22.1-128.6-9.1-255.4,77.2-205.8
				c0.3,0.2,0.7,0.4,1.1,0.7C3034.4,1034.9,3067.7,1130.9,3063.5,1252.3L3063.5,1252.3z"/>
		</g>
		<g>
			<path class="st4" d="M3157.9,1634.6c-13.3,135.7-120.9,228.6-235,214.3c-114-14.3-187.9-128.6-170.9-263.9
				c17-135.3,116-235,230.1-221.3C3104.8,1378.4,3172.3,1487.2,3157.9,1634.6L3157.9,1634.6z"/>
			<g class="st9">
				<path class="st2" d="M3157.9,1634.6c-13.3,135.8-120.9,228.6-235,214.3c-67.7-8.5-121.2-52.2-150-114.6
					c26.2,21.5,57.9,35.7,93.5,40.2c114,14.3,221.7-78.6,235-214.3c5.8-59.9-1.8-113.4-21.1-156.8
					C3139,1450.3,3167.8,1533.3,3157.9,1634.6z"/>
			</g>
			<g class="st10">
				<path class="st6" d="M2781.4,1515.9c38.3-57.1,103.8-39.5,95.5,31.2c0,0-15.6,49.6-14.7,100.1c-16.5,59.7-104.6,52.3-112.5-15.6
					"/>
			</g>
			<path class="st2" d="M2946.1,1869.7c-8.5,0-17.1-0.5-25.6-1.6c-60.9-7.6-113.6-41.5-148.4-95.2c-34.1-52.7-48-120.2-39.2-190.2
				c18.6-148.1,129.1-252.7,251.5-238.1c130.8,15.6,208.2,132.9,192.7,292l0,0c-7.3,74.2-42.4,141.5-96.4,184.7
				C3041,1852.9,2994,1869.7,2946.1,1869.7L2946.1,1869.7z M2961.7,1381.8c-93.7,0-175.5,86.5-190.5,205.7
				c-7.6,61,4.2,119.4,33.4,164.4c28.5,44,71.4,71.7,120.8,77.9c46.1,5.8,92.8-8,131.3-38.8c45.9-36.7,75.8-94.4,82.1-158.3
				c13.6-138.7-48.8-236.8-158.8-249.9C2973.8,1382.1,2967.7,1381.8,2961.7,1381.8L2961.7,1381.8z M3157.9,1634.6L3157.9,1634.6
				L3157.9,1634.6z"/>
			<path class="st2" d="M3003.7,1831.7c-5.4,0-10.8-0.3-16.1-1c-89.9-11.3-146.5-109.5-131.6-228.4c15-119.8,95.6-205.5,183.5-195.1
				c95.3,11.3,148.4,103,135.1,233.6c-6.6,64.9-35.6,122.3-79.7,157.4C3067.4,1820.1,3035.5,1831.7,3003.7,1831.7L3003.7,1831.7z
				 M3024.8,1439.5c-65.4,0-124,70.7-136.1,167c-12.6,100.2,31.7,182.5,102.9,191.4c28.5,3.6,57.1-5.2,82.6-25.5
				c37.1-29.6,61.7-78.7,67.4-134.8l0,0c11.2-111-30.4-188.4-106.1-197.4C3032,1439.7,3028.4,1439.5,3024.8,1439.5L3024.8,1439.5z"
				/>
		</g>
		<g class="st8">
			<path class="st6" d="M1932.1,929.8c0,0,49.2-57.9,109.8-19.3c34.2,21.8,83.1,52.4-7.8,198.4c-65.7,105.5-116.3,223.2-143,299.2
				c-15.9,45.3-64.6,70.9-110.7,57.3c-44.3-13-84.2-43.6-64.7-113.9C1754.4,1212.3,1932.1,929.8,1932.1,929.8L1932.1,929.8z"/>
		</g>
		<path class="st2" d="M2484.8,1781.4c-160.9,0-704.8-120.4-853-348.4c-10.4-12.1-56-79.7,28.6-262.3c2.8-5.9,67.6-140.1,128.1-231
			c5.1-9,39.2-65.8,85.9-71.7c14.7-1.9,36.8,0.7,58.9,23.7c10.1,10.5,20.7,23.3,31.9,37c56.5,68.5,141.8,172,339.9,198.8
			c110.7,15,181.4,8.9,233,4.5c61.5-5.3,102.1-8.8,147.2,32.9c77.2,71.4,54.1,206.4,17.6,341.7c-3.4,12.4-6.5,24.9-9.8,38.2
			c-27.6,110.2-59,235-204.4,236.8C2487.4,1781.4,2486.1,1781.4,2484.8,1781.4L2484.8,1781.4z M1882.2,900.6c-1.2,0-2.4,0.1-3.6,0.2
			c-26.8,3.4-54.1,42.3-61.6,55.7c-0.2,0.4-0.4,0.7-0.7,1.1c-59.3,89-125.4,225.9-126,227.3c-79.3,171.2-33.6,226.3-33.2,226.8
			c0.8,0.8,1.2,1.4,1.8,2.3c138.4,215.2,674.2,334.4,825.8,334.4c1.1,0,2.3,0,3.4,0c119.9-1.5,145.6-103.6,172.7-211.8
			c3.2-12.8,6.5-26.1,10-38.8c32.2-119.2,56.4-249.1-8.1-308.8c-34.3-31.7-61.7-29.4-121.9-24.2c-53.1,4.6-125.9,10.8-240.3-4.6
			c-210.9-28.5-301.2-138.1-360.9-210.5c-11.3-13.7-21-25.5-30.2-35.1C1900.4,905.2,1891.5,900.6,1882.2,900.6L1882.2,900.6z
			 M1802.6,948.4L1802.6,948.4L1802.6,948.4z"/>
		<path class="st3" d="M1733.7,1207L1733.7,1207c7.4,11.8,23.6,13.8,33.9,4.3c58.3-53.4,145.4-42.4,151.2,60.9
			c0.7,12.6,11.9,22,24.4,20.7l5.6-0.6c12.9-1.4,21.5-11.8,20.8-23.6c-9.1-153.1-154.6-178.7-234.2-87.6
			C1729.2,1188.2,1728.7,1198.8,1733.7,1207L1733.7,1207z"/>
		<path class="st3" d="M2315.1,1431.8l2.4,2.3c8.8,8.6,23,8.5,31.5-0.4c51.3-53.2,130.4-34.6,135,59.6c0.6,12.1,10.3,21.7,22.4,21.7
			h12.7c12.6,0,22.9-10.4,22.4-23c-5.7-150.9-148-178.2-227.3-91.3C2306,1409.6,2306.5,1423.4,2315.1,1431.8L2315.1,1431.8z"/>
		<g class="st9">
			<path class="st2" d="M2966.6,888.9c-31.5-27.8-74.1-53.4-114.4-39c-77.2,27.6-138.4,145.5-264.9,170.2
				c-126.4,24.6-359.8-30.4-359.8-30.4l-54-28.8c0,0,291,65.5,427-15.4c136-80.8,160.3-160.8,222.3-164.5
				c62-3.7,54.9-29.4,54.9-29.4s0.1,0,0.1,0.1c18.1,11.6,32.1,22,40.5,30.4C2956.5,820.1,2965.1,864.1,2966.6,888.9L2966.6,888.9z"
				/>
		</g>
	</g>
	<g>
		<path class="st4" d="M2295.5,3049.2c0,0-255.4,36.8-535.1-33.1c-242.9-60.7-264.6-181-266.1-211.5c-0.2-4.6,0-7.2,0-7.2l24.8-97.3
			l79.9-47c0,0,413.4-17.4,569.6,4.7c3.9,0.6,7.6,1.3,11.2,2.3C2323.5,2697.8,2295.5,3049.2,2295.5,3049.2z"/>
		<path class="st2" d="M2124.9,3078.4c-98.9,0-230.6-8.9-369.2-43.5c-292.3-73-281.2-232.4-280.6-239.1c1-10.6,10.3-18.4,21-17.5
			c10.6,1,18.3,10.3,17.5,20.8c-0.4,5.9-5.9,134.1,251.5,198.4c233.9,58.4,453.2,40.9,512.2,34.5c6-107-3.6-339.8-111.3-355
			c-143.7-20.3-514.7-6.5-561.3-4.7l-75.8,44.5c-9.2,5.4-21,2.3-26.4-6.9c-5.4-9.2-2.3-21,6.9-26.4l79.9-46.9c2.7-1.6,5.8-2.5,9-2.6
			c16.9-0.7,417-17.2,573.1,4.9c172.2,24.3,144.6,396.2,143.3,412c-0.7,9-7.6,16.3-16.5,17.6
			C2292.9,3069,2225.9,3078.3,2124.9,3078.4L2124.9,3078.4z"/>
		<path class="st11" d="M2168.7,2577v80.9l-220.5,139.6c-50.7-83.1-96.2-60.2-137.8,41.3l-14.7,26.7c0,0-25.6-44-62.9-86.4
			c-37.9-43.1-87.9-84.5-135.5-77.1c-22.3,3.5-39.7,10.6-53.5,19.5c-44.6,28.8-49.4,76.1-49.4,76.1l-383.2-104.9
			c-23.3-6.4-39.4-27.5-39.4-51.6v-54.7l-13.8-5.4c-2.7-1.1-5.3-2.3-7.8-3.8h-0.1c-13.8-7.9-23.9-21.3-27.5-37.1L915.2,2076
			c-9.1-39.1,26.2-74.1,65.2-64.7l646.9,156.2c40.5,9.8,70.8,43.6,75.9,85.1l24.9,201.9L2168.7,2577L2168.7,2577z"/>
		<g class="st5">
			<path class="st6" d="M1703.2,2252.6l2.5,20.7c-10.7-32.5-37.5-57.7-71.6-65.9l-646.9-156.2c-33.6-8.1-64.4,16.7-66.5,48.7
				l-5.6-24c-9.1-39.1,26.2-74.1,65.2-64.7l646.9,156.2C1667.8,2177.3,1698,2211.2,1703.2,2252.6L1703.2,2252.6z"/>
		</g>
		<g class="st5">
			<polygon class="st6" points="2168.7,2567.3 2168.7,2605.4 1735,2484.9 1730.1,2445.4 			"/>
		</g>
		<path class="st2" d="M1795.7,2884.8c-6.9,0-13.2-3.6-16.7-9.6c-27.1-46.4-111.9-164.6-178.8-154.2c-79,12.3-86.6,77.8-86.7,78.4
			c-0.6,5.6-3.6,10.8-8.3,13.9s-10.5,4.2-16,2.7l-383.2-105c-31.5-8.6-53.5-37.5-53.5-70.2v-41.6l-1.6-0.6
			c-23.7-9.3-41.3-29.6-47.1-54.5l-107.5-463.9c-5.8-24.9,1.6-50.6,19.8-68.6c18.2-18,43.9-25.2,68.8-19.2l646.9,156.1
			c48.1,11.6,84.4,52.4,90.5,101.5l23.3,189.1l428.2,119c8.4,2.3,14.1,9.9,14.1,18.6v80.9c0,6.6-3.4,12.8-9,16.3l-220.5,139.6
			c-4.4,2.8-9.7,3.7-14.7,2.5c-5-1.2-9.4-4.3-12.1-8.8c-16.9-27.6-32.9-42.3-45.1-41.4c-7.9,0.6-29.6,9.7-58.3,80
			c-0.3,0.7-0.6,1.4-1,2l-14.7,26.7c-3.3,6.1-9.7,9.9-16.7,10L1795.7,2884.8L1795.7,2884.8z M1766.8,2789.2
			c10.9,13.8,20.2,27,27.6,38c27.3-65.2,55.8-96.9,89.2-99.5c24.7-2,47.8,12.2,70.3,43.4l195.5-123.8v-55.6l-398.7-110.8l35.4,286.7
			c1.3,10.6-6.2,20.2-16.8,21.5C1768.5,2789.2,1767.6,2789.2,1766.8,2789.2L1766.8,2789.2z M967.4,2029.1c-9,0-17.4,3.5-24.1,10.1
			c-8.7,8.7-12.1,20.5-9.3,32.5l107.5,463.9c2.9,12.4,11.7,22.6,23.6,27.3l13.8,5.4c7.4,2.9,12.3,10,12.3,18v54.7
			c0,15.4,10.3,28.9,25.2,33l363.9,99.7c11.7-34.4,44.2-79.8,114.2-90.7c56.2-8.7,111.6,36.2,152.7,82.6L1709,2457c0,0,0,0,0-0.1
			l-24.9-201.9c-4.1-33.3-28.7-60.9-61.3-68.7l-646.9-156.2C973,2029.4,970.2,2029.1,967.4,2029.1L967.4,2029.1z"/>
		<path class="st2" d="M1548.1,2738.1c-1.7,0-3.4-0.2-5.2-0.7l-476.3-132.6c-10.3-2.9-16.3-13.5-13.4-23.8s13.5-16.3,23.8-13.4
			l476.3,132.6c10.3,2.9,16.3,13.5,13.4,23.8C1564.3,2732.5,1556.5,2738.1,1548.1,2738.1L1548.1,2738.1z"/>
		<path class="st2" d="M1775.5,2792.9c-7.1,0-13.9-3.9-17.3-10.7c-4.8-9.5-0.9-21.1,8.6-25.9l393.2-196.6c9.5-4.8,21.1-0.9,25.9,8.6
			c4.8,9.5,0.9,21.1-8.6,25.9l-393.2,196.6C1781.4,2792.2,1778.4,2792.9,1775.5,2792.9L1775.5,2792.9z"/>
		<g class="st5">
			<path class="st6" d="M1224.4,2305l-8.2-57.6c-0.1-2.2,0.4-4.4,1.5-6.3l19.5-31.6c1.7-2.8,4.9-4.3,8.1-3.7l102.6,20.6
				c2.6,0.5,4.7,2.1,5.8,4.5l20.7,36c1,2.1,1.6,4.3,1.7,6.6l8,65.6c0.3,5.3-4.5,9.5-9.7,8.3l-141.3-32.3
				C1228.2,2314.1,1224.7,2309.9,1224.4,2305L1224.4,2305z"/>
		</g>
		<path class="st2" d="M1216.2,2294l-8.2-57.6c-0.1-2.2,0.4-4.4,1.5-6.3l19.5-31.6c1.7-2.8,4.9-4.3,8.1-3.7l102.6,20.6
			c2.6,0.5,4.7,2.1,5.8,4.5l20.7,36c1,2.1,1.6,4.3,1.7,6.6l8,65.6c0.3,5.3-4.5,9.5-9.7,8.3l-141.3-32.3
			C1220,2303,1216.5,2298.9,1216.2,2294L1216.2,2294z"/>
		<path class="st2" d="M1759.4,2722.1c-5.2,0-10.2-3-12.5-8c-3.2-6.9-0.2-15.1,6.7-18.3l92-42.5l-105-42.5
			c-7.1-2.9-10.5-10.9-7.6-17.9c2.9-7.1,10.9-10.4,17.9-7.6l134.4,54.5c5.1,2.1,8.5,6.9,8.6,12.4s-3,10.5-8,12.8l-120.8,55.8
			C1763.3,2721.7,1761.3,2722.1,1759.4,2722.1L1759.4,2722.1z"/>
		<path class="st2" d="M1824.9,2640.9c-5.1,0-9.9-2.8-12.3-7.6c-3.4-6.8-0.6-15.1,6.2-18.5l62.9-31.4l-149.5-48.4
			c-7.2-2.4-11.2-10.1-8.9-17.4s10.1-11.2,17.4-8.9l181.5,58.8c5.3,1.7,9.1,6.5,9.5,12.1s-2.6,10.9-7.6,13.4l-93,46.4
			C1829.1,2640.4,1827,2640.9,1824.9,2640.9L1824.9,2640.9z"/>
		<g class="st9">
			<path class="st2" d="M1760.4,2780.9l-27.7-1.9c-37.9-43.1-87.9-84.5-135.5-77.1c-22.3,3.5-39.7,10.6-53.5,19.5l-373.4-107.8
				l-120.2-36.7h-0.1l-16.9-40.4c438.2,150,702.4,100,644.9-319.7l18.5,36.8L1760.4,2780.9L1760.4,2780.9z"/>
		</g>
		<g class="st9">
			<path class="st2" d="M1463.6,2695c-52.5,29.2-160.5,27.6-391.8-42.6l40.4,30.2l372.1,98.2l34.9-57.9"/>
		</g>
		<g class="st9">
			<path class="st2" d="M2150.3,2586.2c-4.8,2.4-395.1,194.4-395.1,194.4s39.6,72.9,40.5,70.2s46.8-95.5,46.8-95.5l55.3-6.9
				l54.9,41.9l212.3-130.4"/>
		</g>
		<g class="st8">
			<path class="st6" d="M1102.5,2350.9l-51.4-11c-9-1.9-16-9-17.8-18l-32.5-177.1c-3.8-18.4,13-34.4,31.2-30l47.1,11.4
				c9.9,2.4,17.5,10.4,19.3,20.4l28.1,181.1C1129,2341.8,1116.5,2353.9,1102.5,2350.9L1102.5,2350.9z"/>
		</g>
		<g class="st8">
			<path class="st6" d="M1123.5,2507.2l-39.8-14c-8.5-3-14.9-10.3-16.7-19.2l-9.9-49c-2.2-11.1,7.7-20.9,18.7-18.4l51.6,11.3
				c12,2.6,21.2,12.2,23.3,24.2l6.5,36.4C1160.8,2497.8,1142,2513.7,1123.5,2507.2L1123.5,2507.2z"/>
		</g>
		<polygon class="st2" points="1967.1,2793.4 1960.1,2852.8 1929.4,2801.5 		"/>
		<g class="st9">
			<path class="st2" d="M2295.5,3049.2c0,0-255.4,36.8-535.1-33.1c-242.9-60.7-264.6-181-266.1-211.5c13.1-33.2,32.6-54.5,32.6-54.5
				c-12.4,35.8,2.8,84.1,86.8,154.3c84.1,70.3,511.2,122.6,598.1,44.1c86.8-78.6-22.1-229.8-22.1-229.8l-235.6,106.3l-13.8-36.4
				l239.5-128.6C2323.5,2697.8,2295.5,3049.2,2295.5,3049.2L2295.5,3049.2z"/>
		</g>
		<g>
			
				<linearGradient id="SVGID_1_" gradientUnits="userSpaceOnUse" x1="2049.6189" y1="1185.0693" x2="2114.3887" y2="1069.3193" gradientTransform="matrix(1 0 0 -1 0 4000)">
				<stop  offset="0" style="stop-color:#FFFFFF"/>
				<stop  offset="1" style="stop-color:#F1F2F2"/>
			</linearGradient>
			<path class="st12" d="M2201.9,2899c3.5,27.9-37.9,56.1-92.5,63s-101.8-10.1-105.3-38s53-64.4,107.6-71.3
				S2198.4,2871.1,2201.9,2899z"/>
		</g>
	</g>
	<g class="st9">
		<polyline class="st2" points="2287.2,2793.6 2345.1,2759.4 2262.4,2712.9 2268.8,2737.8 		"/>
	</g>
	<g class="st9">
		<path class="st2" d="M2381.8,2765.7c0,0,39.6,103.4-78,130.1v58.8c76.8-5.3,139.8-38.9,181-117.6"/>
	</g>
	<path class="st2" d="M2652.5,2209.6c-125.6,0-313.2-27.4-508.9-76.4c-138.6-34.6-475.8-130.4-614.2-271.2c-6.4-6.5-6.3-17,0.2-23.4
		s17-6.3,23.4,0.2c91.9,93.5,315.7,191.6,598.6,262.3c250.5,62.6,494.9,90.4,594.2,67.4c8.9-2.1,17.8,3.5,19.8,12.4
		c2.1,8.9-3.5,17.8-12.4,19.8C2727.5,2206.7,2693.2,2209.6,2652.5,2209.6L2652.5,2209.6z"/>
	<path class="st6" d="M2203.5,2669.9l352.9,189.5c0,0,139.6-176.2,172.7-414s-136-272.7-248-258s-183.7,183.7-196.6,240.7
		S2203.5,2669.9,2203.5,2669.9L2203.5,2669.9z"/>
	<g class="st9">
		<path class="st2" d="M2729.1,2445.4c-33.1,237.8-172.7,414-172.7,414l-46.8-25.1c15.2-19.9,140.1-188.8,171.1-412
			c16.8-120.9-18.7-189.4-72.4-225.5C2686.6,2221.9,2750.6,2290.8,2729.1,2445.4L2729.1,2445.4z"/>
	</g>
	<g class="st5">
		<path class="st6" d="M2684.9,2243.9c-52-35.9-121.6-40.8-177.2-33.5c-112.1,14.7-183.8,183.8-196.6,240.7
			c-11.3,50.2-65.6,199.8-78.3,234.5l-29.3-15.7c0,0,68-184.8,80.9-241.8c12.8-56.9,84.5-226,196.6-240.6
			C2546.8,2178.8,2632.3,2187.3,2684.9,2243.9L2684.9,2243.9z"/>
	</g>
	<path class="st2" d="M2556.4,2878.8c-3.1,0-6.2-0.8-9.1-2.3l-352.9-189.6c-8.5-4.6-12.3-14.6-9-23.7c0.7-1.8,67.8-184.3,80.2-239.4
		c10.5-46.6,81.4-238.3,212.9-255.6c42.2-5.6,147.9-10.9,216.6,58.3c48.8,49.2,66.7,123.7,53.1,221.5
		c-33.4,240.2-170.9,416-176.7,423.3C2567.7,2876.2,2562.1,2878.7,2556.4,2878.8L2556.4,2878.8z M2227.4,2660.8l323.4,173.7
		c31.6-44.3,132.3-198.1,159.2-391.8c11.9-85.2-2.4-148.8-42.3-189c-56.6-57-147.6-52-184.1-47.2
		c-100.4,13.2-168.2,172.4-180.3,225.8C2292.4,2480.7,2244.2,2614.6,2227.4,2660.8L2227.4,2660.8z"/>
	<path class="st7" d="M2331.2,2738.5l92.9-239.6c0,0,45.5-126.3,136.4-105.6c90.9,20.7,41.3,146.1,6.9,224.6
		c-34.4,78.6-99,194.4-99,194.4L2331.2,2738.5L2331.2,2738.5z"/>
	<g class="st9">
		<path class="st2" d="M2610.9,2446.2c-5.9-3.4-12.9-6.1-21-7.9c-90.9-20.7-136.4,105.7-136.4,105.7l-83.5,215.4l-38.8-20.8
			l92.9-239.7c0,0,45.5-126.3,136.4-105.6C2592,2400.4,2606.6,2420.2,2610.9,2446.2L2610.9,2446.2z"/>
	</g>
	<path class="st2" d="M2468.4,2828.8c-2.6,0-5.3-0.6-7.8-2l-137.2-73.7c-7.4-3.9-10.6-12.8-7.6-20.5l92.9-239.6
		c1.9-5.3,51.5-139.4,155.5-115.8c25.9,5.9,44.3,19.4,54.8,40.3c25.6,50.7-2.4,129.5-36.5,207.1c-34.4,78.4-99,194.6-99.7,195.8
		C2479.8,2825.7,2474.2,2828.8,2468.4,2828.8L2468.4,2828.8z M2351.9,2730.8l109.9,59.1c18.2-33.3,63.8-117.9,90.4-178.7
		c17.7-40.4,59.3-135.2,37.2-178.9c-5.9-11.8-16.6-19.3-32.6-22.9c-75.5-17.1-116.8,94-117.2,95.1L2351.9,2730.8L2351.9,2730.8z"/>
	<path class="st2" d="M2255.9,2538.4c-1.7,0-3.5-0.3-5.3-0.9l-191.9-64.4c-6.7-2.3-11.3-8.6-11.3-15.7V2321
		c-387.5-118.3-390.9-120.9-394-123.3c-7.2-5.6-8.6-16-3-23.2c4.9-6.3,13.4-8.1,20.3-4.8c16.6,6.3,246.3,76.9,398,123.2
		c7,2.1,11.7,8.5,11.7,15.8v136.8l180.6,60.6c8.7,2.9,13.3,12.3,10.4,20.9C2269.2,2534,2262.8,2538.4,2255.9,2538.4L2255.9,2538.4z
		 M1673.6,2171.5C1673.6,2171.5,1673.6,2171.5,1673.6,2171.5C1673.6,2171.5,1673.6,2171.5,1673.6,2171.5z M1673.6,2171.4
		C1673.6,2171.4,1673.6,2171.5,1673.6,2171.4C1673.6,2171.5,1673.6,2171.5,1673.6,2171.4z"/>
	<path class="st2" d="M2039.8,3289c-92.3,0-173.9-8.5-239-18.8c-152.4-24.1-247.8-62.2-251.7-63.8c-8.5-3.4-12.6-13.1-9.1-21.5
		c3.4-8.5,13.1-12.6,21.5-9.1c3.8,1.5,384,151.4,824.3,37.1c8.8-2.3,17.9,3,20.2,11.9c2.3,8.8-3,17.9-11.9,20.2
		C2267.6,3277.7,2146.6,3289,2039.8,3289L2039.8,3289z"/>
	<g class="st9">
		<path class="st2" d="M2425.1,3123.7c-11.9,40.9-46,150.8-80,193.8c-33.2,41.8-327.9,85.9-569.6,38
			c379.4,44.4,356.5-203.2,356.5-203.2L2425.1,3123.7z"/>
	</g>
	<path class="st2" d="M1514.6,1963.7c-1.4,0-2.8-0.2-4.2-0.6l-238.4-62.8c-8.8-2.3-14.1-11.4-11.8-20.2c2.3-8.8,11.4-14.1,20.2-11.8
		l238.4,62.8c8.8,2.3,14.1,11.4,11.8,20.2C1528.6,1958.8,1521.9,1963.7,1514.6,1963.7L1514.6,1963.7z"/>
	<g class="st9">
		<path class="st2" d="M1525.6,1906.8c-34.4,143.2-151.8,178.2-368.3,84.1l-30.5,52.6l343.1,86.1l18.5-84.9"/>
	</g>
	<path class="st2" d="M1278.7,1343.8c-2.8,0-5.7-0.6-8.5-2c-9.6-4.7-13.5-16.2-8.8-25.8l68.7-140.2c2.9-6.9,9.8-11.8,17.8-11.8h0.1
		c6.7,0,12.8,3.4,16.4,9.1c3.5,5.7,3.9,12.7,1,18.7l-69.2,141.3C1292.7,1339.8,1285.8,1343.8,1278.7,1343.8L1278.7,1343.8z"/>
	<polygon class="st2" points="1283.7,1337.7 1228,1332.6 1273.7,1300.4 	"/>
	<path class="st2" d="M1485.2,1723.4c-9.1,0-18.3-2.4-26.6-7.3l-170-100.5c-23.4-13.9-32.5-43.9-20.6-68.4l256.9-529.9
		c11.9-24.5,40.8-35.4,65.9-24.9l70.8,29.7c8.4,3.5,12.4,13.2,8.8,21.6c-3.5,8.4-13.2,12.4-21.7,8.8l-70.8-29.7
		c-8.9-3.7-19.2,0.1-23.4,8.8l-256.9,529.9c-4.4,9.2-1.1,20.4,7.7,25.6l170,100.5c7.3,4.3,16.4,3.4,22.6-2.4l5.3-4.9
		c6.7-6.2,17.2-5.8,23.4,0.9c6.2,6.7,5.8,17.2-0.9,23.4l-5.3,4.9C1510.5,1718.7,1497.9,1723.4,1485.2,1723.4L1485.2,1723.4z"/>
	<path class="st2" d="M1313.3,1369.6c-2.1,0-4.2-0.5-6.2-1.5c-6.8-3.4-9.5-11.7-6.1-18.5L1489,976c37.1-72.2,97.3-63.7,99.8-63.3
		c7.5,1.2,12.7,8.2,11.5,15.8c-1.2,7.5-8.2,12.6-15.6,11.5c-1.9-0.3-43.5-5.2-71.1,48.5l-188,373.5
		C1323.2,1366.8,1318.3,1369.6,1313.3,1369.6L1313.3,1369.6z"/>
	<path class="st2" d="M1231.1,1661.1c-2.2,0-4.4-0.5-6.4-1.6c-44.6-23.7-39.9-65.9-31.2-85l32.5-71.9c3.1-6.9,11.3-10,18.2-6.9
		c6.9,3.1,10,11.3,6.9,18.2l-32.5,72c-2.3,5.3-12.3,32.5,19.1,49.2c6.7,3.6,9.3,11.9,5.7,18.6
		C1240.8,1658.4,1236,1661.1,1231.1,1661.1L1231.1,1661.1z"/>
	<g class="st9">
		<path class="st2" d="M1253.3,1659.1c69.7,107,20,185.1-149.2,234.4h54.3c0,0-26.3,26.7-4.6,102c0,0,138.7-149.3,228.3-190.6
			l-6.3-80.7"/>
	</g>
	<g class="st9">
		<path class="st2" d="M1441.1,1559.1c0,0,19,170.6-221.1,67.8l8,27.7l223,109.5l50.4,0.8l39.9-37.2l-63.8-106.1"/>
	</g>
	<g>
		<path class="st6" d="M1279.6,806.5c25.1-41,37.4-90.2,32.1-141.7c-12.8-124.9-124.5-215.8-249.4-203
			c-124.9,12.8-215.8,124.5-203,249.5c12.8,124.9,124.5,215.8,249.4,203c34.8-3.6,66.9-14.8,94.8-31.8l105.2,23.6L1279.6,806.5
			L1279.6,806.5z"/>
		<g class="st13">
			<path class="st6" d="M1066.7,505.3c116.7-12,221.8,66.5,245.6,178.8c0-8-0.3-16.1-1.2-24.3c-12.8-124.9-124.5-215.8-249.4-203
				c-124.9,12.8-215.8,124.5-203,249.5c0.8,8.2,2.1,16.2,3.8,24.1C863,615.6,950,517.3,1066.7,505.3L1066.7,505.3z"/>
		</g>
		<circle class="st14" cx="960.3" cy="676" r="32.5"/>
		<circle class="st14" cx="1086.8" cy="676" r="32.5"/>
		<circle class="st14" cx="1213.3" cy="676" r="32.5"/>
		<path class="st14" d="M1085,935.5c-56.7,0-111.2-19.3-155.7-55.5c-51.3-41.7-83.2-100.9-90-166.6c-6.8-65.7,12.5-130.2,54.2-181.4
			c41.7-51.3,100.9-83.2,166.6-90c65.8-6.8,130.2,12.5,181.4,54.2c51.3,41.7,83.2,100.9,90,166.6c5.3,51.3-5.2,101.7-30.4,146.4
			l26.8,91.3c2,6.8,0.2,14.1-4.6,19.3s-12,7.4-19,5.8l-97.6-21.9c-29.6,16.7-61.9,27-96.1,30.5C1102.2,935,1093.6,935.5,1085,935.5
			L1085,935.5z M1085.9,480.6c-7.2,0-14.3,0.4-21.6,1.1c-55.1,5.7-104.7,32.4-139.7,75.4c-35,43-51.1,97-45.5,152.1
			s32.4,104.7,75.4,139.7c43,35,97,51.1,152.1,45.5c31-3.2,60.1-12.9,86.5-29c4.4-2.7,9.7-3.6,14.8-2.4l72.1,16.2l-19.7-67
			c-1.6-5.4-0.8-11.2,2.1-16.1c23.8-39,34-83.7,29.3-129.2c-5.7-55.1-32.4-104.7-75.4-139.7C1179.1,496.8,1133.4,480.6,1085.9,480.6
			L1085.9,480.6z"/>
		<g class="st9">
			<path class="st14" d="M1280.9,804.3c-62.3,52.7-148.1,75.8-233.3,54.5c-94.5-23.5-164.1-95.5-189.2-182.8
				c-0.6,11.6-0.3,23.3,0.9,35.2c12.8,124.9,124.5,215.8,249.5,203c34.8-3.6,66.9-14.8,94.8-31.8l105.2,23.6l-29.2-99.6
				C1280,805.8,1280.4,805,1280.9,804.3L1280.9,804.3z"/>
		</g>
	</g>
	<g class="st15">
		
			<radialGradient id="SVGID_00000047050823335065122830000000884253659014421180_" cx="1875.15" cy="2771.8198" r="303.48" gradientTransform="matrix(1 0 0 -1 0 4000)" gradientUnits="userSpaceOnUse">
			<stop  offset="0" style="stop-color:#299ADF"/>
			<stop  offset="1" style="stop-color:#299ADF"/>
		</radialGradient>
		
			<circle style="display:inline;opacity:0.68;fill:url(#SVGID_00000047050823335065122830000000884253659014421180_);enable-background:new    ;" cx="1880.2" cy="1230.9" r="369.8"/>
	</g>
	<g class="st15">
		
			<radialGradient id="SVGID_00000111178174751390773150000014598785320802615970_" cx="2439.1399" cy="2579.8198" r="303.48" gradientTransform="matrix(1 0 0 -1 0 4000)" gradientUnits="userSpaceOnUse">
			<stop  offset="0" style="stop-color:#299ADF"/>
			<stop  offset="1" style="stop-color:#299ADF"/>
		</radialGradient>
		
			<circle style="opacity:0.68;fill:url(#SVGID_00000111178174751390773150000014598785320802615970_);enable-background:new    ;" cx="2444.2" cy="1422.9" r="369.8"/>
	</g>
</g>
</svg>
