<svg xmlns="http://www.w3.org/2000/svg" viewBox="0 0 1200 630" fill="none">
  <defs>
    <linearGradient id="bg" x1="0" y1="0" x2="1200" y2="630" gradientUnits="userSpaceOnUse">
      <stop offset="0%" stop-color="#0f172a"/>
      <stop offset="100%" stop-color="#1e293b"/>
    </linearGradient>
    <linearGradient id="accent" x1="0" y1="0" x2="1" y2="1">
      <stop offset="0%" stop-color="#38bdf8"/>
      <stop offset="100%" stop-color="#818cf8"/>
    </linearGradient>
    <linearGradient id="shield" x1="0" y1="0" x2="0" y2="1">
      <stop offset="0%" stop-color="#38bdf8"/>
      <stop offset="100%" stop-color="#6366f1"/>
    </linearGradient>
  </defs>

  <!-- Background -->
  <rect width="1200" height="630" fill="url(#bg)"/>

  <!-- Subtle grid pattern -->
  <g opacity="0.05" stroke="#94a3b8" stroke-width="1">
    <line x1="0" y1="0" x2="0" y2="630"/><line x1="60" y1="0" x2="60" y2="630"/>
    <line x1="120" y1="0" x2="120" y2="630"/><line x1="180" y1="0" x2="180" y2="630"/>
    <line x1="240" y1="0" x2="240" y2="630"/><line x1="300" y1="0" x2="300" y2="630"/>
    <line x1="360" y1="0" x2="360" y2="630"/><line x1="420" y1="0" x2="420" y2="630"/>
    <line x1="480" y1="0" x2="480" y2="630"/><line x1="540" y1="0" x2="540" y2="630"/>
    <line x1="600" y1="0" x2="600" y2="630"/><line x1="660" y1="0" x2="660" y2="630"/>
    <line x1="720" y1="0" x2="720" y2="630"/><line x1="780" y1="0" x2="780" y2="630"/>
    <line x1="840" y1="0" x2="840" y2="630"/><line x1="900" y1="0" x2="900" y2="630"/>
    <line x1="960" y1="0" x2="960" y2="630"/><line x1="1020" y1="0" x2="1020" y2="630"/>
    <line x1="1080" y1="0" x2="1080" y2="630"/><line x1="1140" y1="0" x2="1140" y2="630"/>
    <line x1="0" y1="60" x2="1200" y2="60"/><line x1="0" y1="120" x2="1200" y2="120"/>
    <line x1="0" y1="180" x2="1200" y2="180"/><line x1="0" y1="240" x2="1200" y2="240"/>
    <line x1="0" y1="300" x2="1200" y2="300"/><line x1="0" y1="360" x2="1200" y2="360"/>
    <line x1="0" y1="420" x2="1200" y2="420"/><line x1="0" y1="480" x2="1200" y2="480"/>
    <line x1="0" y1="540" x2="1200" y2="540"/>
  </g>

  <!-- Shield icon -->
  <g transform="translate(600, 240)">
    <!-- Outer glow -->
    <path d="M0-120 L80-80 L80 20 Q80 100 0 140 Q-80 100 -80 20 L-80-80 Z"
          fill="url(#shield)" opacity="0.15" transform="scale(1.15)"/>
    <!-- Shield body -->
    <path d="M0-120 L80-80 L80 20 Q80 100 0 140 Q-80 100 -80 20 L-80-80 Z"
          fill="url(#shield)" opacity="0.9"/>
    <!-- Checkmark -->
    <polyline points="-30,10 -8,40 35,-25" stroke="white" stroke-width="12"
              stroke-linecap="round" stroke-linejoin="round" fill="none"/>
    <!-- Envelope icon below shield -->
    <g transform="translate(0, 50)" opacity="0.6">
      <rect x="-25" y="-15" width="50" height="30" rx="3" stroke="#e2e8f0" stroke-width="2" fill="none"/>
      <polyline points="-25,-15 0,5 25,-15" stroke="#e2e8f0" stroke-width="2" fill="none"/>
    </g>
  </g>

  <!-- Title text -->
  <text x="600" y="440" text-anchor="middle" font-family="system-ui, -apple-system, sans-serif"
        font-size="64" font-weight="700" fill="white" letter-spacing="4">SIGIL</text>
  <text x="600" y="480" text-anchor="middle" font-family="system-ui, -apple-system, sans-serif"
        font-size="22" fill="#94a3b8" letter-spacing="2">DMARC REPORT VIEWER &amp; EMAIL AUTH DASHBOARD</text>

  <!-- Decorative dots -->
  <circle cx="100" cy="100" r="3" fill="#38bdf8" opacity="0.4"/>
  <circle cx="1100" cy="530" r="3" fill="#818cf8" opacity="0.4"/>
  <circle cx="200" cy="500" r="2" fill="#38bdf8" opacity="0.3"/>
  <circle cx="1000" cy="130" r="2" fill="#818cf8" opacity="0.3"/>

  <!-- Tech badges -->
  <g transform="translate(600, 560)">
    <g transform="translate(-200, 0)">
      <rect x="-45" y="-14" width="90" height="28" rx="14" fill="#38bdf8" opacity="0.15"/>
      <text x="0" y="5" text-anchor="middle" font-family="system-ui, sans-serif" font-size="13" fill="#38bdf8">FastAPI</text>
    </g>
    <g transform="translate(-80, 0)">
      <rect x="-35" y="-14" width="70" height="28" rx="14" fill="#38bdf8" opacity="0.15"/>
      <text x="0" y="5" text-anchor="middle" font-family="system-ui, sans-serif" font-size="13" fill="#38bdf8">React</text>
    </g>
    <g transform="translate(20, 0)">
      <rect x="-50" y="-14" width="100" height="28" rx="14" fill="#818cf8" opacity="0.15"/>
      <text x="0" y="5" text-anchor="middle" font-family="system-ui, sans-serif" font-size="13" fill="#818cf8">PostgreSQL</text>
    </g>
    <g transform="translate(140, 0)">
      <rect x="-40" y="-14" width="80" height="28" rx="14" fill="#818cf8" opacity="0.15"/>
      <text x="0" y="5" text-anchor="middle" font-family="system-ui, sans-serif" font-size="13" fill="#818cf8">Docker</text>
    </g>
  </g>
</svg>
