<?xml version="1.0" encoding="utf-8"?>
<!-- Generator: Adobe Illustrator 27.8.1, SVG Export Plug-In . SVG Version: 6.00 Build 0)  -->
<svg version="1.1" id="Ebene_1" xmlns="http://www.w3.org/2000/svg" xmlns:xlink="http://www.w3.org/1999/xlink" x="0px" y="0px"
	 viewBox="0 0 1920 1080" style="enable-background:new 0 0 1920 1080;" xml:space="preserve">
<style type="text/css">
	.st0{fill:#5BC2F8;}
	.st1{fill:#5DC4F8;}
	.st2{fill:#59BFF8;}
	.st3{fill:#5CC3F8;}
	.st4{fill:#56BBF7;}
	.st5{fill:#5AC0F8;}
	.st6{fill:#71C7F8;}
	.st7{fill:#D0EBFC;}
	.st8{fill:#8CD1F9;}
	.st9{fill:#EDF7FD;}
	.st10{fill:#58BEF7;}
	.st11{fill:#55BAF7;}
	.st12{fill:#54B9F7;}
	.st13{fill:#51B5F6;}
	.st14{fill:#4FB2F6;}
	.st15{fill:#4DB0F5;}
	.st16{fill:#52B6F6;}
	.st17{fill:#50B4F6;}
	.st18{fill:#49ABF5;}
	.st19{fill:#4EB1F6;}
	.st20{fill:#44A4F4;}
	.st21{fill:#48AAF4;}
	.st22{fill:#46A7F4;}
	.st23{fill:#4CAFF5;}
	.st24{fill:#4BAEF5;}
	.st25{fill:#4AACF5;}
	.st26{fill:#53B7F6;}
	.st27{fill:#42A2F3;}
	.st28{fill:#47A8F4;}
	.st29{fill:#40A0F3;}
	.st30{fill:#45A6F4;}
	.st31{fill:#3D9CF2;}
	.st32{fill:#41A1F3;}
	.st33{fill:#3F9FF3;}
	.st34{fill:#3A98F2;}
	.st35{fill:#3E9DF3;}
	.st36{fill:#3997F2;}
	.st37{fill:#3C9BF2;}
	.st38{fill:#3B99F2;}
	.st39{fill:#43A3F3;}
	.st40{fill:#3693F1;}
	.st41{fill:#3896F1;}
	.st42{fill:#3794F1;}
	.st43{fill:#3592F1;}
	.st44{fill:#3491F1;}
	.st45{fill:#3490F1;}
	.st46{fill:#5FC7F9;}
	.st47{fill:#63CCF9;}
	.st48{fill:#66CFFA;}
	.st49{fill:#67D1FA;}
	.st50{fill:#68D2FA;}
	.st51{fill:#60C8F9;}
	.st52{fill:#61C9F9;}
	.st53{fill:#62CAF9;}
	.st54{fill:#6AD4FB;}
	.st55{fill:#64CDFA;}
	.st56{fill:#6AD5FB;}
	.st57{fill:#5EC5F8;}
	.st58{fill:#57BCF7;}
	.st59{fill:#65CEFA;}
	.st60{fill:#69D3FA;}
</style>
<path class="st0" d="M1917,756.2c-2.8,8.2-5.7,16.3-8.6,24.4c-636.1,0-1272.2,0-1908.4,0v-21.1c628.9,0,1257.8,0,1886.8-0.1
	C1896.9,759.4,1907,757.3,1917,756.2z"/>
<path class="st1" d="M4.6,819.4c-1.5-3.5-3-7-4.5-10.5c0-2.3,0-4.7,0-7c9.4-1.2,18.7-3.4,28.1-3.4c625.5-0.2,1251-0.2,1876.5-0.2
	c0.2,3.5,0.3,7,0.4,10.5c-2.7,3.6-5.3,7.1-8,10.7H7.8C6.7,819.4,5.6,819.4,4.6,819.4z"/>
<path class="st2" d="M1920.1,727.9v17.6H8.9c-0.5-7.4-0.8-12.5-1.1-17.6c636.2,0,1272.3,0,1908.5,0
	C1917.6,727.9,1918.8,727.9,1920.1,727.9L1920.1,727.9z"/>
<path class="st3" d="M1904.7,798.3c-625.5,0-1251,0-1876.5,0.2c-9.4,0-18.7,2.2-28.1,3.4c0-7,0-14.1,0-21.1
	c636.1,0,1272.2,0,1908.4,0C1907.2,786.5,1905.9,792.4,1904.7,798.3z"/>
<path class="st4" d="M1912.6,664.2c2.5,1.3,5,2.6,7.5,3.9v3.5c-1.1,3.6-2.2,7.1-3.3,10.7l-1.3-0.2c-8.7,1.2-17.4,3.4-26,3.4
	c-623.4,0.2-1246.8,0.2-1870.2,0.2c-0.1-2.7-0.3-5.4-0.4-8.1c3.9-9.3,7.7-18.6,11.6-27.9c-0.5,5.6-0.9,11.2-1.4,17.7
	c6.7,0.3,12.4,0.7,18,0.7c615.3,0,1230.6,0,1845.9-0.1C1899.5,667.9,1906.1,665.5,1912.6,664.2L1912.6,664.2z"/>
<path class="st5" d="M7.8,727.9c0.3,5.1,0.6,10.3,1.1,17.6h1911.2v10.6l-1.5,0.4l-1.6-0.2c-10,1.1-20.1,3.2-30.1,3.2
	c-628.9,0.2-1257.8,0.1-1886.8,0.1c0-4.7,0-9.4,0-14.1c2.4-8.5,4.9-16.9,7.3-25.4C7.6,722.7,7.7,725.3,7.8,727.9L7.8,727.9z"/>
<path class="st6" d="M1210,593c-0.3,0-0.7,0-1,0c0-1.7,0-3.3,0-5c0.3,0,0.7,0,1,0V593z"/>
<path class="st7" d="M1920,682v17.6c-1.1-0.1-2.3-0.2-3.4-0.4c-0.4-5.8-0.8-11.5-1.2-17.3l1.3,0.2l1.6-0.1H1920L1920,682z"/>
<path class="st8" d="M1916.6,699.2c1.1,0.2,2.2,0.3,3.4,0.4v10.6c-1.2,0-2.5,0-3.7-0.1c-0.1-1.2-0.2-2.3-0.3-3.4
	C1916.2,704.2,1916.4,701.7,1916.6,699.2L1916.6,699.2z"/>
<path class="st9" d="M1920,682h-1.6l-1.6,0.1c1.1-3.6,2.2-7.1,3.3-10.7V682H1920z"/>
<path class="st10" d="M1916.1,706.8c0.1,1.2,0.2,2.3,0.3,3.4c0,5.9-0.1,11.8-0.1,17.7c-636.2,0-1272.3,0-1908.5,0
	c-0.1-2.6-0.2-5.2-0.4-7.8c3.8-14.2,7.6-28.3,11.4-42.5c0.1,2.7,0.3,5.4,0.4,8.1c-1.2,6.1-2.5,12.2-4.3,21.1H1916.1L1916.1,706.8z"
	/>
<path class="st11" d="M1912.6,664.2c-6.6,1.3-13.2,3.7-19.7,3.7c-615.3,0.2-1230.6,0.2-1845.8,0.1c-5.7,0-11.3-0.4-18-0.7
	c0.5-6.5,1-12.1,1.4-17.7c3.8-7.1,7.7-14.2,11.5-21.2c-0.5,5.6-0.9,11.2-1.4,17.1h1867c0.5-6.5,0.9-11.7,1.3-16.9
	C1910.2,640.5,1911.4,652.3,1912.6,664.2L1912.6,664.2z"/>
<path class="st12" d="M1908.9,628.6c-0.4,5.2-0.8,10.4-1.3,16.9H40.6c0.5-5.9,0.9-11.5,1.4-17.1c11.5-15.4,23-30.9,34.5-46.3
	c-1.1,4-2.2,8-3.3,12c-5.1,5.9-10.2,11.7-15.4,17.6c-2.2,3.8-4.4,7.7-8.1,14.1h23.4c602.1,0,1204.2,0,1806.3,0
	c4.5,0,9.8,1.4,13.2-0.4c4.9-2.6,8.5-7.4,12.6-11.3C1906.5,619,1907.7,623.8,1908.9,628.6L1908.9,628.6z"/>
<path class="st13" d="M73.1,594.1c1.1-4,2.2-8,3.3-12c5.2-4.4,10.4-8.8,15.6-13.1c8.5,1.3,16.9,3.9,25.4,3.9
	c589.4,0.2,1178.8,0.2,1768.2,0.2c2.7,6.1,5.3,12.1,9.2,21.1L73.1,594.1L73.1,594.1z"/>
<path class="st14" d="M1859.2,515.5c6.5,13,13,26.1,19.5,39.1l-1,0.9c-9,0-17.9-0.1-26.9-0.1c-571.4,0-1142.8,0-1714.1-0.2
	c-8.5,0-17-2.4-25.5-3.7c19.3-12.7,38.6-25.4,57.9-38.1c-6.6,7.6-13.1,15.3-17.1,19.9h1711.5
	C1861.9,526.7,1860.6,521.1,1859.2,515.5L1859.2,515.5z"/>
<path class="st15" d="M199.8,499.6c24.3-7,48.6-14,72.9-21.1c-11.3,5.3-22.7,10.6-35.3,16.6c3.5,0.2,5.4,0.4,7.3,0.4
	c524.3,0,1048.6,0,1572.9-0.1c6,0,12-2.2,18-3.4c5.8,7.4,11.5,14.7,18.5,23.7H180.7C187.4,510.1,193.6,504.9,199.8,499.6
	L199.8,499.6z"/>
<path class="st16" d="M73.1,594.1h1821.7c-3.9-9-6.6-15-9.2-21.1c-2.6-5.8-5.2-11.7-7.8-17.5l1-0.9c6.2,11.7,12.5,23.3,18.7,35
	c0.4,6.8,0.7,13.6,1.2,22.1H57.7C62.8,605.9,67.9,600,73.1,594.1L73.1,594.1z"/>
<path class="st17" d="M1877.7,555.6c2.6,5.8,5.2,11.7,7.8,17.5c-589.4,0-1178.8,0-1768.2-0.2c-8.5,0-16.9-2.5-25.4-3.9
	c6.4-5.8,12.8-11.6,19.3-17.5c8.5,1.3,17,3.7,25.5,3.7c571.4,0.2,1142.8,0.2,1714.1,0.2C1859.8,555.4,1868.7,555.5,1877.7,555.6
	L1877.7,555.6z"/>
<path class="st18" d="M1751.4,409.8c5.1,3.6,10.3,7.1,15.4,10.7c5.4,6.8,10.8,13.6,17.8,22.3h-19.2c-472.5,0-944.9,0-1417.4,0
	c-4.5,0-9.4,0.9-13.3-0.4c-3.4-1.2-5.8-4.9-8.6-7.5c7.6-14.2,15.2-28.5,22.8-42.7c0.2,2.8,0.5,5.6,0.7,8.4
	c-3.7,6.2-7.5,12.4-12,19.9h1418.7C1754.3,416.1,1752.9,412.9,1751.4,409.8L1751.4,409.8z"/>
<path class="st19" d="M199.8,499.6c-6.2,5.2-12.3,10.5-19,16.2h1673.3c-7-9-12.8-16.3-18.5-23.7c-5.1-5.9-10.2-11.7-15.4-17.6
	c-5.1-4.7-10.2-9.4-15.4-14.1c-1.2-2.7-2.3-5.5-3.5-8.2c19.3,21.1,38.5,42.2,57.8,63.3c1.4,5.6,2.7,11.2,4.3,17.8H152
	c4-4.6,10.6-12.3,17.1-19.9C179.3,508.8,189.5,504.2,199.8,499.6L199.8,499.6z"/>
<path class="st20" d="M1605.3,316c4.3,9.3,8.6,18.5,12.8,27.8c-9,0.1-17.9,0.4-26.9,0.4c-399.8,0-799.6,0-1199.5,0
	c7.7-8.2,15.4-16.4,23-24.6c388.9,0,777.8,0,1166.7-0.1C1589.5,319.5,1597.4,317.2,1605.3,316L1605.3,316z"/>
<path class="st21" d="M1751.4,409.8c1.4,3.2,2.8,6.3,4.8,10.7H337.5c4.6-7.6,8.3-13.8,12-19.9c451.9,0,903.9,0,1355.8,0
	c5.1,0,10.4,0.6,15.3-0.4c1.7-0.4,2.5-4.6,3.7-7.1C1733.3,398.7,1742.4,404.2,1751.4,409.8L1751.4,409.8z"/>
<path class="st22" d="M414.8,319.6c-7.7,8.2-15.4,16.4-23,24.6c-4.7,4.7-9.5,9.5-16.6,16.5h1253.9c-3.1-5.3-5.6-9.6-8.1-13.9
	c22.9,9.6,45.9,19.3,68.8,28.9c-7.5,2.4-14.9,6.9-22.4,6.9c-427.8,0.3-855.5,0.3-1283.3,0.3c-4.5,0-9.4,1-13.3-0.4
	c-4-1.4-6.9-5.2-10.2-8c20.7-22.9,41.3-45.8,62-68.7C419.9,310.5,417.4,315.1,414.8,319.6L414.8,319.6z"/>
<path class="st23" d="M1820.3,474.5c5.1,5.9,10.2,11.7,15.4,17.6c-6,1.2-12,3.4-18,3.4c-524.3,0.2-1048.6,0.1-1572.9,0.1
	c-1.9,0-3.8-0.2-7.3-0.4c12.6-5.9,24-11.3,35.3-16.6c14-6.2,28.1-12.3,42.1-18.5c-2.7,5.5-5.4,11.1-8.8,17.9h12.3
	c494.6,0,989.2,0,1483.9-0.1C1808.3,477.8,1814.3,475.6,1820.3,474.5z"/>
<path class="st24" d="M1820.3,474.5c-6,1.2-12,3.4-18,3.4c-494.6,0.2-989.2,0.1-1483.9,0.1h-12.3c3.3-6.8,6-12.4,8.8-17.9
	c1.2-2.4,2.5-4.9,3.7-7.3c8,2.5,16.1,7.3,24.1,7.3c487.4,0.4,974.8,0.3,1462.2,0.3C1810,465.1,1815.1,469.8,1820.3,474.5
	L1820.3,474.5z"/>
<path class="st25" d="M1804.9,460.4c-487.4,0-974.8,0-1462.2-0.3c-8,0-16.1-4.8-24.1-7.3c2.5-6,5-12,7.5-17.9
	c2.8,2.6,5.2,6.4,8.6,7.5c4,1.3,8.8,0.4,13.3,0.4c472.5,0,944.9,0,1417.4,0h19.2c-7-8.8-12.4-15.5-17.8-22.3
	c11.5,10.6,23,21.2,34.6,31.7C1802.6,454.9,1803.7,457.7,1804.9,460.4L1804.9,460.4z"/>
<path class="st26" d="M57.7,611.7h1840.9c-0.5-8.5-0.8-15.3-1.2-22.1c2.6,8.2,5.2,16.3,7.9,24.5c-4.1,3.9-7.7,8.7-12.6,11.3
	c-3.4,1.8-8.8,0.4-13.2,0.4c-602.1,0-1204.2,0-1806.3,0H49.7C53.3,619.4,55.5,615.6,57.7,611.7L57.7,611.7z"/>
<path class="st27" d="M425.9,304.8c12.9-10.7,25.7-21.5,38.6-32.2c-2.8,4.7-5.6,9.4-8.5,14.4h1131.7c-0.4-6.6-0.7-12.3-1-18
	c5.4,13.2,10.8,26.4,16.2,39.7c-2.6,0.1-5.1,0.3-7.7,0.3c-383.9,0-767.8,0.1-1151.7-0.1C437.6,308.9,431.8,306.2,425.9,304.8
	L425.9,304.8z"/>
<path class="st28" d="M360.5,374.6c3.4,2.8,6.3,6.6,10.2,8c3.9,1.4,8.8,0.4,13.3,0.4c427.8,0,855.5,0,1283.3-0.3
	c7.5,0,14.9-4.5,22.4-6.9c11.5,5.8,23,11.5,34.6,17.3c-1.2,2.5-2,6.8-3.7,7.1c-4.9,1-10.2,0.4-15.3,0.4c-451.9,0-903.9,0-1355.8,0
	c-0.2-2.8-0.5-5.6-0.7-8.4C352.7,386.3,356.6,380.4,360.5,374.6L360.5,374.6z"/>
<path class="st29" d="M1574.5,245.6c1.4,2.1,2.8,4.2,4.2,6.2c0.5,5.6,0.9,11.2,1.5,18.5h-19.9c-354.4,0-708.8,0-1063.3,0
	c-5.1,0-10.3,0.2-15.3-0.6c-1-0.2-1.2-4.5-1.8-7c12.9-6.8,25.7-13.6,38.6-20.4c7.9,2.3,15.9,6.6,23.8,6.6
	c337.5,0.3,674.9,0.3,1012.4,0.1C1561.3,249.1,1567.9,246.8,1574.5,245.6L1574.5,245.6z"/>
<path class="st30" d="M1620.9,346.9c2.5,4.3,5,8.6,8.1,13.9H375.2c7.1-7.1,11.8-11.8,16.6-16.5c399.8,0,799.6,0,1199.5,0
	c8.9,0,17.9-0.3,26.9-0.4C1619,344.8,1620,345.8,1620.9,346.9L1620.9,346.9z"/>
<path class="st31" d="M748.9,189.6c6.2-7.5,12.3-15.1,18.5-22.6c0.2,2.7,0.4,5.5,0.6,8.2c-3.7,4.8-7.5,9.6-12.7,16.4
	c7.5,0.6,11.2,1.2,14.9,1.2c249.7,0,499.4,0.1,749.2-0.1c5.8,0,11.6-2.9,17.4-4.4c2.4,3.5,4.8,7.1,7.2,10.6
	c3.7,6.2,7.5,12.5,11.2,18.7H626.9c0-2.4,0-4.7,0-7c25.3,0,50.6,1.1,75.8-0.4C720.3,209,741,210.4,748.9,189.6L748.9,189.6z"/>
<path class="st32" d="M479.9,262.7c0.6,2.4,0.8,6.8,1.8,7c5,0.8,10.1,0.6,15.3,0.6c354.4,0,708.8,0,1063.3,0h19.9
	c-0.6-7.3-1.1-12.9-1.5-18.5c2.7,5.7,5.3,11.5,8,17.2c0.3,5.7,0.7,11.4,1,18H456c3-5,5.7-9.7,8.5-14.4
	C469.6,269.3,474.8,266,479.9,262.7L479.9,262.7z"/>
<path class="st33" d="M1555.3,217.5c-3.7-6.2-7.5-12.5-11.2-18.7c10.2,15.6,20.3,31.2,30.4,46.8c-6.6,1.2-13.2,3.5-19.8,3.5
	c-337.5,0.2-674.9,0.2-1012.4-0.1c-7.9,0-15.9-4.3-23.8-6.6c15.3-5.9,30.7-11.9,46-17.8c-0.3,14.8,12.1,6.7,17.3,6.7
	c319.5,0.5,639.1,0.4,958.6,0.4h20.8C1558.8,225.9,1557.1,221.7,1555.3,217.5L1555.3,217.5z"/>
<path class="st34" d="M778.7,153.8c7.9-8.3,15.8-16.6,23.7-24.9c6.1,2.5,12.2,7.3,18.3,7.3c216.3,0.4,432.6,0.3,648.9,0.2
	c5.1,0,10.2-1,16.4-1.6c-4.8-7.9-8.1-13.4-11.4-18.9c11.7,12.5,23.5,24.9,35.2,37.4c-7.1,1.4-14.3,4.1-21.4,4.2
	c-228.5,0.2-456.9,0.2-685.4,0C794.8,157.4,786.7,155,778.7,153.8L778.7,153.8z"/>
<path class="st35" d="M1555.3,217.5c1.8,4.2,3.5,8.3,6,14.1h-20.8c-319.5,0-639.1,0.1-958.6-0.4c-5.2,0-17.6,8.1-17.3-6.7
	c44.2-17.3,90.9-20.3,138.2-22.2c15.6-0.6,30.9-8.2,46.3-12.6c-7.9,20.8-28.6,19.4-46.2,20.4c-25.2,1.5-50.5,0.4-75.8,0.4
	c0,2.4,0,4.7,0,7H1555.3L1555.3,217.5z"/>
<path class="st36" d="M1474.4,115.9c3.3,5.5,6.6,11,11.4,18.9c-6.2,0.6-11.3,1.6-16.4,1.6c-216.3,0.1-432.6,0.1-648.8-0.2
	c-6.1,0-12.2-4.8-18.3-7.3c12.8-10.8,25.5-21.6,38.3-32.4c-4.1,5.6-8.2,11.2-12.3,16.9c1.7,0.9,2.7,1.8,3.7,1.8
	c205.8,0.1,411.7,0.2,617.5-0.2c4.7,0,9.3-5.2,14-7.9C1467.2,110,1470.8,113,1474.4,115.9L1474.4,115.9z"/>
<path class="st37" d="M1536.8,188.2c-5.8,1.6-11.6,4.4-17.4,4.4c-249.7,0.2-499.4,0.2-749.2,0.1c-3.7,0-7.4-0.6-14.9-1.2
	c5.2-6.7,8.9-11.5,12.7-16.4c244.6,0,489.1,0,733.7-0.2c7.8,0,15.5-2.7,23.3-4.2C1528.9,176.6,1532.8,182.4,1536.8,188.2
	L1536.8,188.2z"/>
<path class="st38" d="M1524.9,170.9c-7.8,1.4-15.5,4.2-23.3,4.2c-244.6,0.2-489.1,0.2-733.7,0.2c-0.2-2.7-0.4-5.5-0.6-8.2
	c3.7-4.4,7.5-8.8,11.2-13.3c8.1,1.3,16.1,3.7,24.2,3.7c228.5,0.2,456.9,0.2,685.4,0c7.1,0,14.3-2.7,21.4-4.2
	C1514.7,159.1,1519.8,165,1524.9,170.9L1524.9,170.9z"/>
<path class="st39" d="M425.9,304.8c5.9,1.4,11.7,4.1,17.6,4.1c383.9,0.2,767.8,0.1,1151.7,0.1c2.6,0,5.1-0.2,7.7-0.3
	c0.8,2.4,1.6,4.9,2.4,7.3c-7.9,1.2-15.8,3.4-23.7,3.4c-388.9,0.2-777.8,0.1-1166.7,0.1c2.6-4.6,5.1-9.1,7.7-13.7
	C423.6,305.3,424.7,305,425.9,304.8L425.9,304.8z"/>
<path class="st40" d="M906.2,56c15.4-6.8,30.7-13.7,46.1-20.5c-11.4,7.4-22.9,14.9-34.9,22.7h458.8c-17.8-8.2-30.8-14.2-43.7-20.1
	c-8.9-4.4-17.9-8.7-26.9-13.1c28.2,11.6,56.3,23.1,84.5,34.7c6.5,6.3,13,12.6,20.3,19.7H879.2C888.5,71.3,897.4,63.6,906.2,56
	L906.2,56z"/>
<path class="st41" d="M1463.5,107.1c-4.7,2.8-9.3,7.9-14,7.9c-205.8,0.4-411.7,0.3-617.5,0.2c-1,0-2-1-3.7-1.8
	c4.2-5.7,8.2-11.3,12.3-16.9c1.3-0.9,2.6-1.9,3.8-2.8c7.2,1.3,14.3,3.9,21.5,3.9c187.1,0.2,374.3,0.2,561.4,0c6.7,0,13.4-1.9,20.1-3
	C1452.8,98.8,1458.2,102.9,1463.5,107.1z"/>
<path class="st42" d="M1447.5,94.7c-6.7,1-13.4,3-20.1,3c-187.1,0.2-374.3,0.2-561.4,0c-7.2,0-14.3-2.5-21.5-3.9
	c20.6-12.6,41.2-25.2,61.7-37.8c-8.9,7.7-17.7,15.3-27,23.4h531.2c-7.4-7.1-13.9-13.4-20.3-19.7C1409.2,71.3,1428.4,83,1447.5,94.7z
	"/>
<path class="st43" d="M1332.5,38c13,6,25.9,11.9,43.7,20.1H917.4c12-7.8,23.4-15.2,34.9-22.7c23-7.1,46.1-14.1,69.1-21.2
	c-3.8,2-7.7,4.1-11.5,6.2C993,26.2,976.1,32,959.2,37.8c2.7,3.2,4.4,3.7,6,3.7c117.7,0,235.4,0.1,353.1-0.1
	C1323,41.3,1327.8,39.1,1332.5,38L1332.5,38z"/>
<path class="st44" d="M1332.5,38c-4.7,1.2-9.4,3.4-14.2,3.4c-117.7,0.2-235.4,0.2-353.1,0.1c-1.7,0-3.3-0.5-6-3.7
	c16.9-5.8,33.8-11.6,50.7-17.4c15.6,1.2,31.2,3.3,46.8,3.4c71.3,0.4,142.6,0.2,213.9,0.2c0.2-1.5,0.4-3,0.6-4.5
	c-25.3-4.1-50.4-10.4-75.9-11.7c-36.2-1.8-72.7-0.5-109,0.6c-20.4,0.6-40.7,3.5-61,5.3c94.6-21.9,188-17,280.2,11.2
	C1314.6,29.2,1323.5,33.6,1332.5,38L1332.5,38z"/>
<path class="st45" d="M1025.4,13.7c20.3-1.8,40.6-4.7,61-5.3c36.3-1.1,72.8-2.4,109-0.6c25.4,1.3,50.6,7.6,75.9,11.7
	c-0.2,1.5-0.4,3-0.6,4.5c-71.3,0-142.6,0.2-213.9-0.2c-15.6-0.1-31.2-2.2-46.8-3.4c3.8-2.1,7.7-4.1,11.5-6.2
	C1022.7,14,1024.1,13.8,1025.4,13.7L1025.4,13.7z"/>
<path class="st46" d="M4.6,819.4c1.1,0,2.2,0,3.2,0c1.2,15.5,13.3,14.1,25.1,14.1c613.3-0.1,1226.7-0.1,1840-0.1
	c3.2,0,6.4-0.1,9.6,0c10.8,0.4,15.1-4.7,14.5-14.1c2.7-3.6,5.3-7.1,8-10.7c-6.7,16.5-13.3,32.9-19.9,49.4
	c-615.7,0-1231.4,0-1847.1,0.1c-10.9,0-21.7,0.9-27-10.5C8.9,838.2,6.7,828.8,4.6,819.4L4.6,819.4z"/>
<path class="st47" d="M53.2,940c-4.8-7.4-9.6-14.8-14.4-22.1c8-2.3,16-6.7,24.1-6.7c587.7-0.3,1175.4-0.3,1763.1-0.1
	c8.7,0,17.4,2.5,26.1,3.8c-6.5,8.2-13,16.4-19.4,24.6c-7.4-1.3-14.8-3.7-22.2-3.7c-579.2-0.2-1158.5-0.2-1737.7,0
	C66.1,935.7,59.7,938.5,53.2,940L53.2,940z"/>
<path class="st48" d="M83.3,981.6c-7.3-9.5-14.6-19-22-28.5c1.3,0,2.7,0,4,0c5.8,13.2,17.3,14.3,31.1,14.3
	c568.2-0.2,1136.4-0.2,1704.5-0.2c-10.5,15.9-25,21.6-46.1,21.5c-552.8-0.5-1105.7-0.4-1658.7-0.4C91.8,986.1,87.6,983.9,83.3,981.6
	L83.3,981.6z"/>
<path class="st49" d="M96.1,988.3c553,0,1105.9-0.1,1658.9,0.4c21.1,0,35.6-5.6,46.1-21.5c5.1-4.7,10.2-9.4,15.3-14.1
	c3.6-2.3,7.1-4.6,10.7-6.9c-18.8,27.5-43.3,49.2-75.4,63.4c-8.3-0.1-16.6-0.2-24.9-0.2c-534.6,0-1069.2,0-1603.8,0
	C114,1002.4,105.1,995.4,96.1,988.3L96.1,988.3z"/>
<path class="st50" d="M123,1009.4c534.6,0,1069.2,0,1603.8,0c8.3,0,16.6,0.1,24.9,0.2c-1.3,1.2-2.6,2.3-3.9,3.5
	c-14.2,5.8-28.4,11.6-42.7,17.4H153.7C143.5,1023.5,133.2,1016.5,123,1009.4L123,1009.4z"/>
<path class="st51" d="M11,847.6c5.3,11.5,16.1,10.5,27,10.5c615.8,0,1231.4,0,1847.1,0c-3.8,7-7.5,14.1-11.2,21.1
	c-14.5-1.2-29.1-3.4-43.6-3.4c-588.2-0.2-1176.5-0.2-1764.7,0.2c-14.3,0-28.6,4.5-42.8,6.8C18.8,871.1,14.9,859.4,11,847.6L11,847.6
	z"/>
<path class="st52" d="M22.7,882.9c14.3-2.4,28.5-6.8,42.8-6.8c588.2-0.3,1176.5-0.3,1764.7-0.2c14.5,0,29.1,2.2,43.6,3.4
	c-2.6,4.7-5.2,9.4-7.9,14.1c-613,0-1226,0-1838.9,0C25.6,889.8,24.2,886.3,22.7,882.9L22.7,882.9z"/>
<path class="st53" d="M27.1,893.3c613,0,1226,0,1838.9,0c-4.7,7.2-9.4,14.3-14.1,21.5c-8.7-1.3-17.4-3.8-26.1-3.8
	c-587.7-0.2-1175.4-0.2-1763.1,0.1c-8,0-16,4.3-24.1,6.7C34.9,909.7,31,901.5,27.1,893.3L27.1,893.3z"/>
<path class="st54" d="M123,1009.4c10.2,7,20.5,14.1,30.7,21.1c15.2,4.7,30.5,13.5,45.7,13.5c402.4,0.8,804.8,0.6,1207.2,0.6
	c85.7,0,171.5,0.6,257.2-0.6c13.8-0.2,27.6-8.8,41.3-13.4c14.2-5.8,28.4-11.6,42.7-17.5c-24.4,13.1-48.2,27.4-73.5,38.9
	c-16.8,7.7-35.8,11.4-53.8,16.9c-8-1.1-15.9-3-23.9-3c-445.1-0.2-890.2-0.1-1335.2-0.3c-16.6,0-33.3-2.3-49.9-3.5
	c-51.4-15.2-95-40.7-128-80.4c4.2,2.2,8.5,4.5,12.8,6.7C105.1,995.4,114,1002.4,123,1009.4L123,1009.4z"/>
<path class="st55" d="M1827.1,946.2c-3.6,2.3-7.1,4.6-10.7,6.9c-19-1.2-38-3.4-57.1-3.4c-523.2-0.2-1046.5-0.2-1569.8,0
	c-41.4,0-82.8,2.2-124.2,3.4c-1.3,0-2.7,0-4,0c-2.7-4.4-5.5-8.8-8.2-13.2c6.5-1.5,13-4.3,19.4-4.3c579.2-0.2,1158.5-0.2,1737.7,0
	c7.4,0,14.8,2.4,22.2,3.7C1830.7,941.7,1828.9,944,1827.1,946.2L1827.1,946.2z"/>
<path class="st56" d="M211.4,1062c16.6,1.2,33.3,3.5,49.9,3.5c445.1,0.2,890.2,0.1,1335.2,0.3c8,0,15.9,2,23.9,3
	c-47,3.7-94,10.4-141.1,10.5c-365.3,0.9-730.5,1-1095.8-0.1c-53.3-0.2-106.5-8.3-159.7-12.9C219.5,1066,215.5,1063.5,211.4,1062
	L211.4,1062z"/>
<path class="st57" d="M1897.1,819.4c0.6,9.4-3.8,14.5-14.5,14.1c-3.2-0.1-6.4,0-9.6,0c-613.3,0-1226.7,0-1840,0.1
	c-11.8,0-24,1.3-25.1-14.1L1897.1,819.4L1897.1,819.4z"/>
<path class="st58" d="M1916.1,706.8H15c1.8-8.9,3.1-15,4.3-21.1c623.4,0,1246.8,0,1870.2-0.2c8.7,0,17.4-2.2,26-3.4
	c0.4,5.8,0.8,11.5,1.2,17.3C1916.5,701.8,1916.3,704.3,1916.1,706.8L1916.1,706.8z"/>
<path class="st59" d="M65.4,953.1c41.4-1.2,82.8-3.3,124.2-3.4c523.2-0.2,1046.5-0.2,1569.8,0c19,0,38,2.2,57.1,3.4
	c-5.1,4.7-10.2,9.4-15.3,14.1c-568.2,0-1136.4,0-1704.5,0.2C82.7,967.4,71.2,966.3,65.4,953.1L65.4,953.1z"/>
<path class="st60" d="M1705.1,1030.6c-13.8,4.7-27.5,13.2-41.3,13.4c-85.7,1.2-171.4,0.6-257.2,0.6c-402.4,0-804.8,0.2-1207.2-0.6
	c-15.3,0-30.5-8.8-45.7-13.5L1705.1,1030.6L1705.1,1030.6z"/>
</svg>
