<svg xmlns="http://www.w3.org/2000/svg" xmlns:xlink="http://www.w3.org/1999/xlink" width="500" zoomAndPan="magnify" viewBox="0 0 375 374.999991" height="500" preserveAspectRatio="xMidYMid meet" version="1.0"><defs><clipPath id="542b9a1cf8"><path d="M 130 37.5 L 138 37.5 L 138 45 L 130 45 Z M 130 37.5 " clip-rule="nonzero"/></clipPath><clipPath id="84b4e2a05f"><path d="M 236 301 L 243 301 L 243 308.25 L 236 308.25 Z M 236 301 " clip-rule="nonzero"/></clipPath></defs><path fill="#2191f8" d="M 165.75 45.949219 C 165.253906 47.441406 163.761719 48.4375 162.023438 48.1875 C 160.53125 47.691406 159.539062 46.199219 159.785156 44.460938 C 160.28125 42.96875 161.773438 41.972656 163.515625 42.222656 C 165.003906 42.71875 166 44.210938 165.75 45.949219 Z M 165.75 45.949219 " fill-opacity="1" fill-rule="nonzero"/><g clip-path="url(#542b9a1cf8)"><path fill="#2191f8" d="M 137.664062 42.222656 C 137.167969 44.210938 135.179688 45.207031 133.4375 44.707031 C 131.449219 44.210938 130.457031 42.222656 130.953125 40.484375 C 131.449219 38.496094 133.4375 37.5 135.179688 37.996094 C 137.167969 38.496094 138.160156 40.484375 137.664062 42.222656 Z M 137.664062 42.222656 " fill-opacity="1" fill-rule="nonzero"/></g><path fill="#2191f8" d="M 110.570312 44.957031 C 110.074219 47.195312 107.835938 48.4375 105.847656 47.9375 C 103.613281 47.441406 102.367188 45.207031 102.867188 43.21875 C 103.363281 40.980469 105.601562 39.738281 107.589844 40.234375 C 109.824219 40.730469 111.070312 42.96875 110.570312 44.957031 Z M 110.570312 44.957031 " fill-opacity="1" fill-rule="nonzero"/><path fill="#2191f8" d="M 85.21875 53.65625 C 84.722656 56.140625 82.234375 57.382812 79.75 56.886719 C 77.265625 56.390625 76.023438 53.90625 76.519531 51.417969 C 77.015625 48.933594 79.5 47.691406 81.988281 48.1875 C 84.222656 48.933594 85.714844 51.417969 85.21875 53.65625 Z M 85.21875 53.65625 " fill-opacity="1" fill-rule="nonzero"/><path fill="#2191f8" d="M 62.351562 67.824219 C 61.605469 70.558594 59.121094 72.050781 56.386719 71.304688 C 53.652344 70.558594 52.160156 68.074219 52.90625 65.339844 C 53.652344 62.605469 56.136719 61.113281 58.871094 61.859375 C 61.355469 62.355469 62.847656 65.089844 62.351562 67.824219 Z M 62.351562 67.824219 " fill-opacity="1" fill-rule="nonzero"/><path fill="#2191f8" d="M 42.964844 86.714844 C 42.21875 89.695312 39.234375 91.4375 36.5 90.691406 C 33.519531 89.945312 31.777344 86.964844 32.523438 84.230469 C 33.269531 81.246094 36.253906 79.507812 38.988281 80.253906 C 41.722656 80.996094 43.710938 83.730469 42.964844 86.714844 Z M 42.964844 86.714844 " fill-opacity="1" fill-rule="nonzero"/><path fill="#2191f8" d="M 28.050781 109.832031 C 27.304688 113.0625 24.074219 114.800781 20.84375 114.054688 C 17.609375 113.308594 15.871094 110.078125 16.617188 106.847656 C 17.363281 103.617188 20.59375 101.875 23.824219 102.621094 C 26.808594 103.367188 28.796875 106.597656 28.050781 109.832031 Z M 28.050781 109.832031 " fill-opacity="1" fill-rule="nonzero"/><path fill="#2191f8" d="M 18.355469 136.675781 C 17.609375 140.15625 14.128906 142.144531 10.652344 141.398438 C 7.171875 140.652344 5.183594 137.171875 5.929688 133.691406 C 6.675781 130.210938 10.152344 128.222656 13.632812 128.96875 C 17.113281 129.714844 19.101562 133.195312 18.355469 136.675781 Z M 18.355469 136.675781 " fill-opacity="1" fill-rule="nonzero"/><path fill="#2191f8" d="M 14.875 165.257812 C 13.882812 168.988281 10.152344 171.222656 6.425781 170.230469 C 2.695312 169.234375 0.460938 165.507812 1.453125 161.777344 C 2.449219 158.050781 6.175781 155.8125 9.90625 156.808594 C 13.632812 157.800781 15.871094 161.53125 14.875 165.257812 Z M 14.875 165.257812 " fill-opacity="1" fill-rule="nonzero"/><path fill="#2191f8" d="M 18.109375 192.847656 C 17.113281 196.824219 13.136719 199.0625 9.160156 198.070312 C 5.183594 197.074219 2.945312 193.097656 3.941406 189.121094 C 4.933594 185.144531 8.910156 182.90625 12.886719 183.902344 C 16.617188 185.144531 19.101562 189.121094 18.109375 192.847656 Z M 18.109375 192.847656 " fill-opacity="1" fill-rule="nonzero"/><path fill="#2191f8" d="M 27.054688 218.949219 C 26.0625 223.171875 21.835938 225.660156 17.609375 224.664062 C 13.386719 223.671875 10.898438 219.445312 11.894531 215.21875 C 12.886719 210.992188 17.113281 208.507812 21.339844 209.503906 C 25.566406 210.496094 28.296875 214.722656 27.054688 218.949219 Z M 27.054688 218.949219 " fill-opacity="1" fill-rule="nonzero"/><path fill="#2191f8" d="M 41.472656 242.558594 C 40.230469 247.035156 35.753906 249.769531 31.28125 248.527344 C 26.808594 247.28125 24.074219 242.808594 25.316406 238.335938 C 26.558594 233.859375 31.03125 231.125 35.507812 232.371094 C 39.980469 233.363281 42.714844 238.085938 41.472656 242.558594 Z M 41.472656 242.558594 " fill-opacity="1" fill-rule="nonzero"/><path fill="#2191f8" d="M 60.859375 262.445312 C 59.617188 267.167969 54.894531 269.902344 50.171875 268.90625 C 45.449219 267.664062 42.714844 262.941406 43.710938 258.21875 C 44.953125 253.496094 49.675781 250.761719 54.398438 251.757812 C 59.121094 253 61.855469 257.722656 60.859375 262.445312 Z M 60.859375 262.445312 " fill-opacity="1" fill-rule="nonzero"/><path fill="#2191f8" d="M 84.222656 277.855469 C 82.980469 282.828125 78.011719 285.808594 73.039062 284.566406 C 68.066406 283.324219 65.085938 278.351562 66.328125 273.382812 C 67.570312 268.410156 72.542969 265.425781 77.511719 266.671875 C 82.484375 267.914062 85.46875 272.882812 84.222656 277.855469 Z M 84.222656 277.855469 " fill-opacity="1" fill-rule="nonzero"/><path fill="#2191f8" d="M 111.566406 288.296875 C 110.324219 293.515625 104.855469 296.746094 99.632812 295.253906 C 94.414062 294.011719 91.183594 288.542969 92.675781 283.324219 C 93.917969 278.105469 99.386719 274.871094 104.605469 276.363281 C 109.578125 277.605469 112.808594 283.074219 111.566406 288.296875 Z M 111.566406 288.296875 " fill-opacity="1" fill-rule="nonzero"/><path fill="#2191f8" d="M 140.398438 292.023438 C 138.90625 297.492188 133.4375 300.722656 127.96875 299.480469 C 122.503906 297.988281 119.269531 292.519531 120.511719 287.050781 C 122.003906 281.582031 127.472656 278.351562 132.941406 279.59375 C 138.410156 281.085938 141.890625 286.554688 140.398438 292.023438 Z M 140.398438 292.023438 " fill-opacity="1" fill-rule="nonzero"/><path fill="#2191f8" d="M 168.484375 289.539062 C 166.992188 295.253906 161.277344 298.734375 155.558594 297.242188 C 149.84375 295.75 146.363281 290.035156 147.855469 284.316406 C 149.347656 278.601562 155.0625 275.121094 160.78125 276.613281 C 166.496094 278.105469 169.976562 283.820312 168.484375 289.539062 Z M 168.484375 289.539062 " fill-opacity="1" fill-rule="nonzero"/><path fill="#2191f8" d="M 194.832031 281.085938 C 193.339844 287.050781 187.128906 290.78125 181.160156 289.289062 C 175.195312 287.796875 171.46875 281.582031 172.960938 275.617188 C 174.449219 269.652344 180.664062 265.925781 186.628906 267.417969 C 192.84375 268.90625 196.324219 275.121094 194.832031 281.085938 Z M 194.832031 281.085938 " fill-opacity="1" fill-rule="nonzero"/><path fill="#2191f8" d="M 218.695312 267.417969 C 217.203125 273.628906 210.738281 277.359375 204.527344 275.867188 C 198.3125 274.375 194.582031 267.914062 196.074219 261.699219 C 197.566406 255.484375 204.027344 251.757812 210.242188 253.25 C 216.457031 254.738281 220.183594 260.953125 218.695312 267.417969 Z M 218.695312 267.417969 " fill-opacity="1" fill-rule="nonzero"/><path fill="#2191f8" d="M 238.828125 248.773438 C 237.085938 255.238281 230.625 259.214844 224.164062 257.472656 C 217.699219 255.734375 213.722656 249.269531 215.460938 242.808594 C 217.203125 236.347656 223.664062 232.371094 230.128906 234.109375 C 236.589844 235.601562 240.566406 242.0625 238.828125 248.773438 Z M 238.828125 248.773438 " fill-opacity="1" fill-rule="nonzero"/><path fill="#2191f8" d="M 254.734375 225.660156 C 252.996094 232.371094 246.035156 236.59375 239.324219 234.855469 C 232.613281 233.113281 228.386719 226.15625 230.128906 219.445312 C 231.867188 212.734375 238.828125 208.507812 245.539062 210.246094 C 252.496094 211.988281 256.476562 218.949219 254.734375 225.660156 Z M 254.734375 225.660156 " fill-opacity="1" fill-rule="nonzero"/><path fill="#2191f8" d="M 265.421875 199.0625 C 263.683594 206.023438 256.476562 210.246094 249.515625 208.507812 C 242.554688 206.769531 238.332031 199.558594 240.070312 192.601562 C 241.808594 185.640625 249.019531 181.414062 255.976562 183.15625 C 262.9375 184.894531 267.164062 192.101562 265.421875 199.0625 Z M 265.421875 199.0625 " fill-opacity="1" fill-rule="nonzero"/><path fill="#2191f8" d="M 148.847656 66.828125 C 148.601562 68.074219 147.359375 68.816406 146.113281 68.320312 C 144.871094 68.074219 144.125 66.828125 144.625 65.585938 C 144.871094 64.34375 146.113281 63.597656 147.359375 64.097656 C 148.351562 64.34375 149.097656 65.585938 148.847656 66.828125 Z M 148.847656 66.828125 " fill-opacity="1" fill-rule="nonzero"/><path fill="#2191f8" d="M 128.714844 64.097656 C 128.46875 65.339844 126.976562 66.332031 125.734375 65.835938 C 124.492188 65.585938 123.496094 64.097656 123.992188 62.851562 C 124.242188 61.609375 125.734375 60.617188 126.976562 61.113281 C 128.21875 61.363281 128.964844 62.851562 128.714844 64.097656 Z M 128.714844 64.097656 " fill-opacity="1" fill-rule="nonzero"/><path fill="#2191f8" d="M 109.078125 66.085938 C 108.582031 67.574219 107.089844 68.570312 105.601562 68.074219 C 104.109375 67.574219 103.113281 66.085938 103.613281 64.59375 C 104.109375 63.101562 105.601562 62.105469 107.089844 62.605469 C 108.582031 63.101562 109.578125 64.59375 109.078125 66.085938 Z M 109.078125 66.085938 " fill-opacity="1" fill-rule="nonzero"/><path fill="#2191f8" d="M 90.6875 72.546875 C 90.191406 74.285156 88.449219 75.28125 86.710938 74.785156 C 84.96875 74.285156 83.976562 72.546875 84.472656 70.808594 C 84.96875 69.066406 86.710938 68.074219 88.449219 68.570312 C 90.191406 69.066406 91.183594 70.808594 90.6875 72.546875 Z M 90.6875 72.546875 " fill-opacity="1" fill-rule="nonzero"/><path fill="#2191f8" d="M 74.28125 82.488281 C 73.785156 84.476562 71.796875 85.472656 70.054688 84.972656 C 68.066406 84.476562 67.074219 82.488281 67.570312 80.75 C 68.066406 78.761719 70.054688 77.765625 71.796875 78.261719 C 73.535156 78.761719 74.53125 80.75 74.28125 82.488281 Z M 74.28125 82.488281 " fill-opacity="1" fill-rule="nonzero"/><path fill="#2191f8" d="M 60.113281 96.160156 C 59.617188 98.148438 57.378906 99.640625 55.390625 98.894531 C 53.402344 98.398438 51.910156 96.160156 52.65625 94.171875 C 53.15625 92.183594 55.390625 90.691406 57.378906 91.4375 C 59.367188 91.933594 60.609375 94.171875 60.113281 96.160156 Z M 60.113281 96.160156 " fill-opacity="1" fill-rule="nonzero"/><path fill="#2191f8" d="M 49.425781 113.0625 C 48.929688 115.296875 46.441406 116.789062 44.207031 116.042969 C 41.96875 115.546875 40.476562 113.0625 41.222656 110.824219 C 41.722656 108.585938 44.207031 107.097656 46.441406 107.84375 C 48.433594 108.339844 49.921875 110.574219 49.425781 113.0625 Z M 49.425781 113.0625 " fill-opacity="1" fill-rule="nonzero"/><path fill="#2191f8" d="M 42.464844 132.449219 C 41.722656 134.933594 39.234375 136.425781 36.75 135.679688 C 34.265625 134.933594 32.773438 132.449219 33.519531 129.964844 C 34.265625 127.476562 36.75 125.988281 39.234375 126.730469 C 41.472656 127.476562 42.964844 129.964844 42.464844 132.449219 Z M 42.464844 132.449219 " fill-opacity="1" fill-rule="nonzero"/><path fill="#2191f8" d="M 39.980469 153.078125 C 39.234375 155.8125 36.5 157.304688 34.015625 156.558594 C 31.28125 155.8125 29.789062 153.078125 30.535156 150.59375 C 31.28125 147.859375 34.015625 146.367188 36.5 147.113281 C 38.988281 147.609375 40.726562 150.34375 39.980469 153.078125 Z M 39.980469 153.078125 " fill-opacity="1" fill-rule="nonzero"/><path fill="#2191f8" d="M 42.21875 172.964844 C 41.472656 175.699219 38.488281 177.4375 35.753906 176.691406 C 33.019531 175.945312 31.28125 172.964844 32.027344 170.230469 C 32.773438 167.496094 35.753906 165.757812 38.488281 166.5 C 41.222656 167.246094 42.964844 170.230469 42.21875 172.964844 Z M 42.21875 172.964844 " fill-opacity="1" fill-rule="nonzero"/><path fill="#2191f8" d="M 48.679688 191.855469 C 47.933594 194.835938 44.953125 196.824219 41.722656 196.078125 C 38.738281 195.335938 36.75 192.351562 37.496094 189.121094 C 38.242188 186.136719 41.222656 184.148438 44.453125 184.894531 C 47.6875 185.640625 49.425781 188.871094 48.679688 191.855469 Z M 48.679688 191.855469 " fill-opacity="1" fill-rule="nonzero"/><path fill="#2191f8" d="M 59.121094 208.757812 C 58.375 211.988281 55.144531 213.976562 51.910156 213.230469 C 48.679688 212.484375 46.691406 209.253906 47.4375 206.023438 C 48.183594 202.792969 51.414062 200.800781 54.644531 201.546875 C 58.125 202.292969 59.867188 205.523438 59.121094 208.757812 Z M 59.121094 208.757812 " fill-opacity="1" fill-rule="nonzero"/><path fill="#2191f8" d="M 73.039062 223.171875 C 72.292969 226.652344 68.8125 228.640625 65.332031 227.894531 C 61.855469 227.148438 59.867188 223.671875 60.609375 220.191406 C 61.355469 216.710938 64.835938 214.722656 68.316406 215.46875 C 71.796875 216.460938 74.035156 219.941406 73.039062 223.171875 Z M 73.039062 223.171875 " fill-opacity="1" fill-rule="nonzero"/><path fill="#2191f8" d="M 89.941406 234.359375 C 88.945312 237.835938 85.46875 240.074219 81.738281 239.328125 C 78.257812 238.335938 76.023438 234.855469 76.765625 231.125 C 77.761719 227.648438 81.242188 225.410156 84.96875 226.15625 C 88.699219 227.148438 90.933594 230.878906 89.941406 234.359375 Z M 89.941406 234.359375 " fill-opacity="1" fill-rule="nonzero"/><path fill="#2191f8" d="M 109.824219 241.816406 C 108.832031 245.542969 105.101562 247.78125 101.375 247.035156 C 97.644531 246.039062 95.410156 242.3125 96.15625 238.582031 C 97.148438 234.855469 100.878906 232.617188 104.605469 233.363281 C 108.335938 234.109375 110.570312 238.085938 109.824219 241.816406 Z M 109.824219 241.816406 " fill-opacity="1" fill-rule="nonzero"/><path fill="#2191f8" d="M 130.703125 244.796875 C 129.710938 248.773438 125.734375 251.261719 121.757812 250.265625 C 117.78125 249.269531 115.292969 245.292969 116.289062 241.316406 C 117.28125 237.339844 121.257812 234.855469 125.234375 235.847656 C 129.214844 236.84375 131.699219 240.820312 130.703125 244.796875 Z M 130.703125 244.796875 " fill-opacity="1" fill-rule="nonzero"/><path fill="#2191f8" d="M 150.835938 242.808594 C 149.84375 247.035156 145.617188 249.519531 141.390625 248.527344 C 137.167969 247.53125 134.679688 243.304688 135.675781 239.082031 C 136.667969 234.855469 140.894531 232.371094 145.121094 233.363281 C 149.347656 234.605469 151.832031 238.832031 150.835938 242.808594 Z M 150.835938 242.808594 " fill-opacity="1" fill-rule="nonzero"/><path fill="#2191f8" d="M 169.976562 236.84375 C 168.984375 241.070312 164.507812 243.804688 160.035156 242.808594 C 155.808594 241.816406 153.074219 237.339844 154.070312 232.867188 C 155.0625 228.640625 159.539062 225.90625 164.011719 226.902344 C 168.484375 228.144531 170.972656 232.371094 169.976562 236.84375 Z M 169.976562 236.84375 " fill-opacity="1" fill-rule="nonzero"/><path fill="#2191f8" d="M 187.128906 226.652344 C 185.882812 231.125 181.410156 233.859375 176.9375 232.867188 C 172.460938 231.625 169.726562 227.148438 170.722656 222.675781 C 171.964844 218.203125 176.4375 215.46875 180.914062 216.460938 C 185.636719 217.703125 188.371094 222.179688 187.128906 226.652344 Z M 187.128906 226.652344 " fill-opacity="1" fill-rule="nonzero"/><path fill="#2191f8" d="M 201.792969 213.230469 C 200.550781 217.953125 195.828125 220.6875 191.105469 219.691406 C 186.382812 218.449219 183.648438 213.726562 184.640625 209.003906 C 185.882812 204.28125 190.605469 201.546875 195.328125 202.542969 C 200.050781 203.785156 203.035156 208.507812 201.792969 213.230469 Z M 201.792969 213.230469 " fill-opacity="1" fill-rule="nonzero"/><path fill="#2191f8" d="M 213.226562 196.824219 C 211.984375 201.796875 207.011719 204.78125 202.039062 203.535156 C 197.070312 202.292969 194.085938 197.324219 195.328125 192.351562 C 196.574219 187.378906 201.542969 184.398438 206.515625 185.640625 C 211.484375 186.882812 214.46875 191.855469 213.226562 196.824219 Z M 213.226562 196.824219 " fill-opacity="1" fill-rule="nonzero"/><path fill="#2191f8" d="M 220.929688 177.4375 C 219.6875 182.410156 214.46875 185.640625 209.496094 184.398438 C 204.527344 183.15625 201.296875 177.933594 202.539062 172.964844 C 203.78125 167.992188 209 164.761719 213.972656 166.003906 C 219.191406 167.246094 222.175781 172.46875 220.929688 177.4375 Z M 220.929688 177.4375 " fill-opacity="1" fill-rule="nonzero"/><g clip-path="url(#84b4e2a05f)"><path fill="#2191f8" d="M 236.589844 304.949219 C 236.589844 303.207031 238.082031 301.964844 239.820312 301.964844 C 241.5625 301.964844 242.804688 303.457031 242.804688 305.195312 C 242.804688 306.9375 241.3125 308.179688 239.574219 308.179688 C 237.832031 307.929688 236.589844 306.441406 236.589844 304.949219 Z M 236.589844 304.949219 " fill-opacity="1" fill-rule="nonzero"/></g><path fill="#2191f8" d="M 264.675781 302.460938 C 264.675781 300.472656 266.417969 298.984375 268.40625 298.984375 C 270.394531 298.984375 271.886719 300.722656 271.886719 302.710938 C 271.886719 304.699219 270.144531 306.191406 268.15625 306.191406 C 266.167969 306.191406 264.675781 304.453125 264.675781 302.460938 Z M 264.675781 302.460938 " fill-opacity="1" fill-rule="nonzero"/><path fill="#2191f8" d="M 290.527344 294.011719 C 290.527344 291.773438 292.515625 290.035156 294.753906 290.285156 C 296.988281 290.285156 298.730469 292.273438 298.480469 294.507812 C 298.480469 296.746094 296.492188 298.484375 294.253906 298.238281 C 292.265625 298.238281 290.527344 296.25 290.527344 294.011719 Z M 290.527344 294.011719 " fill-opacity="1" fill-rule="nonzero"/><path fill="#2191f8" d="M 313.644531 280.339844 C 313.644531 277.855469 315.878906 275.867188 318.367188 276.117188 C 320.851562 276.363281 322.839844 278.351562 322.589844 280.839844 C 322.589844 283.324219 320.355469 285.3125 317.867188 285.0625 C 315.632812 284.816406 313.644531 282.828125 313.644531 280.339844 Z M 313.644531 280.339844 " fill-opacity="1" fill-rule="nonzero"/><path fill="#2191f8" d="M 333.03125 261.699219 C 333.03125 258.964844 335.515625 256.726562 338.25 256.976562 C 340.984375 256.976562 343.222656 259.460938 342.972656 262.195312 C 342.972656 264.929688 340.488281 267.167969 337.753906 266.917969 C 335.019531 266.671875 333.03125 264.433594 333.03125 261.699219 Z M 333.03125 261.699219 " fill-opacity="1" fill-rule="nonzero"/><path fill="#2191f8" d="M 347.945312 239.082031 C 347.945312 236.097656 350.679688 233.859375 353.660156 233.859375 C 356.644531 233.859375 358.878906 236.347656 358.878906 239.578125 C 358.878906 242.558594 356.394531 244.796875 353.164062 244.796875 C 350.179688 244.550781 347.945312 242.0625 347.945312 239.082031 Z M 347.945312 239.082031 " fill-opacity="1" fill-rule="nonzero"/><path fill="#2191f8" d="M 357.636719 213.230469 C 357.636719 210 360.371094 207.511719 363.851562 207.511719 C 367.082031 207.511719 369.570312 210.246094 369.570312 213.726562 C 369.570312 216.957031 366.835938 219.445312 363.355469 219.445312 C 360.125 219.445312 357.636719 216.710938 357.636719 213.230469 Z M 357.636719 213.230469 " fill-opacity="1" fill-rule="nonzero"/><path fill="#2191f8" d="M 361.613281 184.894531 C 361.613281 181.414062 364.597656 178.679688 368.324219 178.679688 C 371.804688 178.679688 374.539062 181.664062 374.539062 185.390625 C 374.539062 188.871094 371.558594 191.605469 367.828125 191.605469 C 364.101562 191.355469 361.367188 188.625 361.613281 184.894531 Z M 361.613281 184.894531 " fill-opacity="1" fill-rule="nonzero"/><path fill="#2191f8" d="M 358.632812 156.558594 C 358.878906 152.832031 361.863281 149.847656 365.839844 149.847656 C 369.570312 150.097656 372.550781 153.078125 372.550781 157.054688 C 372.304688 160.785156 369.320312 163.765625 365.34375 163.765625 C 361.613281 163.519531 358.632812 160.289062 358.632812 156.558594 Z M 358.632812 156.558594 " fill-opacity="1" fill-rule="nonzero"/><path fill="#2191f8" d="M 349.933594 129.964844 C 350.179688 125.988281 353.414062 122.753906 357.636719 122.753906 C 361.613281 123.003906 364.847656 126.234375 364.847656 130.460938 C 364.597656 134.4375 361.367188 137.667969 357.140625 137.667969 C 352.914062 137.421875 349.683594 133.941406 349.933594 129.964844 Z M 349.933594 129.964844 " fill-opacity="1" fill-rule="nonzero"/><path fill="#2191f8" d="M 335.515625 106.351562 C 335.765625 102.125 339.246094 98.644531 343.71875 98.894531 C 347.945312 99.140625 351.425781 102.621094 351.175781 107.097656 C 350.925781 111.320312 347.445312 114.800781 342.972656 114.554688 C 338.746094 114.304688 335.269531 110.824219 335.515625 106.351562 Z M 335.515625 106.351562 " fill-opacity="1" fill-rule="nonzero"/><path fill="#2191f8" d="M 316.378906 86.464844 C 316.625 81.992188 320.355469 78.261719 325.078125 78.511719 C 329.800781 78.761719 333.277344 82.488281 333.03125 87.210938 C 332.78125 91.6875 329.054688 95.414062 324.332031 95.164062 C 319.855469 94.917969 316.378906 91.1875 316.378906 86.464844 Z M 316.378906 86.464844 " fill-opacity="1" fill-rule="nonzero"/><path fill="#2191f8" d="M 293.511719 71.054688 C 293.757812 66.085938 297.734375 62.355469 302.707031 62.605469 C 307.679688 62.851562 311.40625 66.828125 311.15625 71.800781 C 310.910156 76.773438 306.933594 80.5 301.960938 80.253906 C 296.988281 80.003906 293.261719 76.027344 293.511719 71.054688 Z M 293.511719 71.054688 " fill-opacity="1" fill-rule="nonzero"/><path fill="#2191f8" d="M 267.164062 60.863281 C 267.410156 55.644531 271.636719 51.667969 276.855469 51.917969 C 282.078125 52.164062 286.054688 56.390625 285.804688 61.609375 C 285.554688 66.828125 281.332031 70.808594 276.109375 70.558594 C 271.140625 70.308594 266.914062 66.085938 267.164062 60.863281 Z M 267.164062 60.863281 " fill-opacity="1" fill-rule="nonzero"/><path fill="#2191f8" d="M 238.332031 56.640625 C 238.578125 51.171875 243.050781 46.945312 248.519531 47.195312 C 253.988281 47.441406 258.214844 51.917969 257.964844 57.382812 C 257.71875 62.851562 253.242188 67.078125 247.773438 66.828125 C 242.308594 66.582031 238.082031 62.105469 238.332031 56.640625 Z M 238.332031 56.640625 " fill-opacity="1" fill-rule="nonzero"/><path fill="#2191f8" d="M 209.25 58.875 C 209.496094 53.160156 214.21875 48.683594 219.9375 48.933594 C 225.652344 49.183594 230.128906 53.90625 229.878906 59.621094 C 229.628906 65.339844 224.90625 69.8125 219.191406 69.5625 C 213.472656 69.316406 209.25 64.59375 209.25 58.875 Z M 209.25 58.875 " fill-opacity="1" fill-rule="nonzero"/><path fill="#2191f8" d="M 182.40625 67.328125 C 182.652344 61.363281 187.625 56.886719 193.589844 56.886719 C 199.554688 57.136719 204.027344 62.105469 204.027344 68.074219 C 203.78125 74.039062 198.808594 78.511719 192.84375 78.511719 C 186.878906 78.261719 182.15625 73.292969 182.40625 67.328125 Z M 182.40625 67.328125 " fill-opacity="1" fill-rule="nonzero"/><path fill="#2191f8" d="M 158.542969 81.246094 C 158.792969 75.03125 164.011719 70.308594 170.226562 70.308594 C 176.4375 70.558594 181.160156 75.777344 181.160156 81.992188 C 180.914062 88.207031 175.695312 92.929688 169.480469 92.929688 C 163.015625 92.429688 158.292969 87.460938 158.542969 81.246094 Z M 158.542969 81.246094 " fill-opacity="1" fill-rule="nonzero"/><path fill="#2191f8" d="M 138.160156 99.640625 C 138.410156 93.175781 143.878906 88.207031 150.339844 88.453125 C 156.804688 88.703125 161.773438 94.171875 161.527344 100.632812 C 161.277344 107.097656 155.808594 112.066406 149.347656 111.820312 C 142.882812 111.570312 137.914062 106.101562 138.160156 99.640625 Z M 138.160156 99.640625 " fill-opacity="1" fill-rule="nonzero"/><path fill="#2191f8" d="M 122.253906 122.257812 C 122.503906 115.546875 128.21875 110.328125 134.929688 110.574219 C 141.640625 110.824219 146.859375 116.542969 146.613281 123.253906 C 146.363281 129.964844 140.648438 135.183594 133.9375 134.933594 C 127.226562 134.6875 122.003906 128.96875 122.253906 122.257812 Z M 122.253906 122.257812 " fill-opacity="1" fill-rule="nonzero"/><path fill="#2191f8" d="M 111.566406 148.109375 C 111.8125 141.148438 117.78125 135.679688 124.738281 135.929688 C 131.699219 136.175781 137.167969 142.144531 136.917969 149.101562 C 136.667969 156.0625 130.703125 161.53125 123.746094 161.28125 C 116.785156 160.785156 111.316406 155.066406 111.566406 148.109375 Z M 111.566406 148.109375 " fill-opacity="1" fill-rule="nonzero"/><path fill="#2191f8" d="M 106.84375 176.195312 C 107.089844 168.988281 113.058594 163.269531 120.511719 163.519531 C 127.722656 163.765625 133.4375 169.734375 133.191406 177.191406 C 132.941406 184.398438 126.976562 190.113281 119.519531 189.867188 C 112.3125 189.617188 106.59375 183.652344 106.84375 176.195312 Z M 106.84375 176.195312 " fill-opacity="1" fill-rule="nonzero"/><path fill="#2191f8" d="M 248.769531 280.839844 C 248.769531 279.59375 249.765625 278.601562 251.007812 278.851562 C 252.25 278.851562 253.242188 279.84375 252.996094 281.085938 C 252.996094 282.328125 252 283.324219 250.757812 283.074219 C 249.515625 283.074219 248.519531 282.082031 248.769531 280.839844 Z M 248.769531 280.839844 " fill-opacity="1" fill-rule="nonzero"/><path fill="#2191f8" d="M 268.902344 279.347656 C 268.902344 277.855469 270.144531 276.863281 271.636719 276.863281 C 273.128906 276.863281 274.121094 278.105469 274.121094 279.59375 C 274.121094 281.085938 272.878906 282.082031 271.636719 282.082031 C 269.898438 281.832031 268.902344 280.589844 268.902344 279.347656 Z M 268.902344 279.347656 " fill-opacity="1" fill-rule="nonzero"/><path fill="#2191f8" d="M 287.792969 273.132812 C 287.792969 271.640625 289.285156 270.398438 290.777344 270.398438 C 292.265625 270.398438 293.511719 271.890625 293.511719 273.382812 C 293.511719 274.871094 292.019531 276.117188 290.527344 276.117188 C 288.789062 276.117188 287.542969 274.871094 287.792969 273.132812 Z M 287.792969 273.132812 " fill-opacity="1" fill-rule="nonzero"/><path fill="#2191f8" d="M 304.445312 263.191406 C 304.445312 261.449219 305.9375 259.960938 307.679688 259.960938 C 309.417969 259.960938 310.910156 261.449219 310.910156 263.191406 C 310.910156 264.929688 309.417969 266.421875 307.679688 266.421875 C 305.6875 266.421875 304.199219 264.929688 304.445312 263.191406 Z M 304.445312 263.191406 " fill-opacity="1" fill-rule="nonzero"/><path fill="#2191f8" d="M 318.367188 249.769531 C 318.367188 247.78125 320.105469 246.289062 322.09375 246.289062 C 324.082031 246.289062 325.574219 248.027344 325.574219 250.015625 C 325.574219 252.003906 323.835938 253.496094 321.84375 253.496094 C 319.855469 253.25 318.367188 251.757812 318.367188 249.769531 Z M 318.367188 249.769531 " fill-opacity="1" fill-rule="nonzero"/><path fill="#2191f8" d="M 329.054688 233.363281 C 329.054688 231.125 331.042969 229.386719 333.03125 229.636719 C 335.269531 229.636719 337.007812 231.625 336.757812 233.613281 C 336.757812 235.847656 334.769531 237.589844 332.78125 237.339844 C 330.792969 237.339844 329.054688 235.601562 329.054688 233.363281 Z M 329.054688 233.363281 " fill-opacity="1" fill-rule="nonzero"/><path fill="#2191f8" d="M 336.261719 214.722656 C 336.261719 212.484375 338.25 210.496094 340.734375 210.496094 C 342.972656 210.496094 344.960938 212.484375 344.960938 214.96875 C 344.960938 217.207031 342.972656 219.195312 340.488281 219.195312 C 338 219.195312 336.011719 217.207031 336.261719 214.722656 Z M 336.261719 214.722656 " fill-opacity="1" fill-rule="nonzero"/><path fill="#2191f8" d="M 338.996094 194.339844 C 338.996094 191.855469 341.234375 189.867188 343.71875 189.867188 C 346.203125 189.867188 348.191406 192.101562 348.191406 194.589844 C 348.191406 197.074219 345.957031 199.0625 343.46875 199.0625 C 340.734375 199.0625 338.746094 196.824219 338.996094 194.339844 Z M 338.996094 194.339844 " fill-opacity="1" fill-rule="nonzero"/><path fill="#2191f8" d="M 337.007812 173.710938 C 337.007812 170.976562 339.492188 168.738281 342.226562 168.988281 C 344.960938 168.988281 347.199219 171.472656 346.949219 174.207031 C 346.949219 176.941406 344.464844 179.179688 341.730469 178.929688 C 338.996094 178.679688 336.757812 176.445312 337.007812 173.710938 Z M 337.007812 173.710938 " fill-opacity="1" fill-rule="nonzero"/><path fill="#2191f8" d="M 330.546875 154.570312 C 330.546875 151.589844 333.03125 149.351562 336.011719 149.351562 C 338.996094 149.351562 341.234375 151.835938 341.234375 154.820312 C 341.234375 157.800781 338.746094 160.039062 335.765625 160.039062 C 332.535156 160.039062 330.296875 157.554688 330.546875 154.570312 Z M 330.546875 154.570312 " fill-opacity="1" fill-rule="nonzero"/><path fill="#2191f8" d="M 320.105469 137.667969 C 320.105469 134.4375 322.839844 132.199219 326.070312 132.199219 C 329.300781 132.199219 331.539062 134.933594 331.539062 138.164062 C 331.539062 141.398438 328.804688 143.632812 325.574219 143.632812 C 322.34375 143.386719 320.105469 140.652344 320.105469 137.667969 Z M 320.105469 137.667969 " fill-opacity="1" fill-rule="nonzero"/><path fill="#2191f8" d="M 306.433594 123.253906 C 306.433594 120.019531 309.417969 117.289062 312.648438 117.535156 C 315.878906 117.535156 318.613281 120.519531 318.367188 123.75 C 318.367188 126.980469 315.382812 129.714844 312.152344 129.464844 C 308.921875 129.21875 306.1875 126.484375 306.433594 123.253906 Z M 306.433594 123.253906 " fill-opacity="1" fill-rule="nonzero"/><path fill="#2191f8" d="M 289.78125 112.066406 C 289.78125 108.585938 292.765625 105.851562 296.246094 105.851562 C 299.722656 105.851562 302.457031 108.835938 302.457031 112.316406 C 302.457031 115.796875 299.476562 118.53125 295.996094 118.53125 C 292.265625 118.53125 289.53125 115.546875 289.78125 112.066406 Z M 289.78125 112.066406 " fill-opacity="1" fill-rule="nonzero"/><path fill="#2191f8" d="M 270.644531 104.609375 C 270.890625 100.882812 273.875 97.898438 277.601562 98.148438 C 281.332031 98.398438 284.3125 101.378906 284.066406 105.109375 C 284.066406 108.835938 280.832031 111.820312 277.105469 111.570312 C 273.625 111.320312 270.644531 108.339844 270.644531 104.609375 Z M 270.644531 104.609375 " fill-opacity="1" fill-rule="nonzero"/><path fill="#2191f8" d="M 250.011719 101.628906 C 250.261719 97.652344 253.492188 94.667969 257.21875 94.917969 C 261.199219 95.164062 264.179688 98.398438 263.929688 102.125 C 263.683594 106.101562 260.453125 109.085938 256.722656 108.835938 C 252.746094 108.585938 249.765625 105.355469 250.011719 101.628906 Z M 250.011719 101.628906 " fill-opacity="1" fill-rule="nonzero"/><path fill="#2191f8" d="M 228.886719 103.121094 C 229.132812 99.140625 232.363281 95.910156 236.589844 95.910156 C 240.566406 96.160156 243.796875 99.390625 243.796875 103.617188 C 243.550781 107.59375 240.320312 110.824219 236.09375 110.824219 C 232.117188 110.574219 228.886719 107.34375 228.886719 103.121094 Z M 228.886719 103.121094 " fill-opacity="1" fill-rule="nonzero"/><path fill="#2191f8" d="M 209.496094 109.332031 C 209.746094 105.109375 213.226562 101.628906 217.453125 101.875 C 221.675781 102.125 225.15625 105.605469 224.90625 109.832031 C 224.660156 114.054688 221.179688 117.535156 216.953125 117.289062 C 212.730469 117.039062 209.25 113.558594 209.496094 109.332031 Z M 209.496094 109.332031 " fill-opacity="1" fill-rule="nonzero"/><path fill="#2191f8" d="M 192.097656 119.277344 C 192.347656 114.800781 196.074219 111.320312 200.550781 111.570312 C 205.023438 111.820312 208.503906 115.546875 208.253906 120.019531 C 208.007812 124.496094 204.277344 127.976562 199.804688 127.726562 C 195.578125 127.476562 192.097656 123.75 192.097656 119.277344 Z M 192.097656 119.277344 " fill-opacity="1" fill-rule="nonzero"/><path fill="#2191f8" d="M 177.433594 132.699219 C 177.683594 127.976562 181.410156 124.496094 186.132812 124.496094 C 190.855469 124.742188 194.335938 128.472656 194.335938 133.195312 C 194.085938 137.917969 190.359375 141.398438 185.636719 141.398438 C 180.914062 141.148438 177.183594 137.421875 177.433594 132.699219 Z M 177.433594 132.699219 " fill-opacity="1" fill-rule="nonzero"/><path fill="#2191f8" d="M 166 148.855469 C 166.25 143.882812 170.226562 140.15625 175.195312 140.402344 C 180.167969 140.652344 183.894531 144.628906 183.648438 149.601562 C 183.398438 154.570312 179.421875 158.300781 174.449219 158.050781 C 169.480469 157.800781 165.75 153.824219 166 148.855469 Z M 166 148.855469 " fill-opacity="1" fill-rule="nonzero"/><path fill="#2191f8" d="M 158.292969 167.496094 C 158.542969 162.523438 162.769531 158.546875 167.738281 158.546875 C 172.710938 158.796875 176.6875 163.023438 176.6875 167.992188 C 176.4375 172.964844 172.214844 176.941406 167.242188 176.941406 C 162.023438 176.941406 158.046875 172.714844 158.292969 167.496094 Z M 158.292969 167.496094 " fill-opacity="1" fill-rule="nonzero"/><path fill="#2191f8" d="M 154.816406 188.125 C 155.0625 182.90625 159.289062 178.679688 164.507812 178.929688 C 169.726562 179.179688 173.953125 183.402344 173.703125 188.625 C 173.457031 193.84375 169.230469 198.070312 164.011719 197.820312 C 158.792969 197.570312 154.566406 193.347656 154.816406 188.125 Z M 154.816406 188.125 " fill-opacity="1" fill-rule="nonzero"/></svg>